%TF.GenerationSoftware,Altium Limited,Altium Designer,24.1.2 (44)*%
G04 Layer_Physical_Order=2*
G04 Layer_Color=16711680*
%FSLAX45Y45*%
%MOMM*%
%TF.SameCoordinates,7ED79C81-FA59-40CF-9332-3CD9E0033582*%
%TF.FilePolarity,Positive*%
%TF.FileFunction,Copper,L2,Bot,Signal*%
%TF.Part,Single*%
G01*
G75*
%TA.AperFunction,ComponentPad*%
%ADD10R,1.20000X1.20000*%
%ADD11C,1.20000*%
%ADD12R,1.20000X1.20000*%
%ADD13R,1.80000X1.80000*%
%ADD14C,1.80000*%
%ADD15R,1.60000X1.60000*%
%ADD16C,1.60000*%
%ADD17C,1.50000*%
%ADD18R,1.50000X1.50000*%
%ADD19R,1.25000X1.25000*%
%ADD20C,1.25000*%
%ADD21C,1.53000*%
%ADD22R,1.30000X1.30000*%
%ADD23C,1.30000*%
%ADD24R,1.30000X1.30000*%
%ADD25R,1.81500X1.81500*%
%ADD26C,1.81500*%
%ADD27R,1.90000X1.90000*%
%ADD28C,1.90000*%
%ADD29R,1.55000X1.55000*%
%ADD30C,1.55000*%
%ADD31R,1.25000X1.25000*%
%ADD32R,1.70000X1.70000*%
%ADD33C,1.70000*%
%ADD34R,1.84000X1.84000*%
%ADD35C,1.84000*%
%ADD36R,1.55000X1.55000*%
%TA.AperFunction,Conductor*%
%ADD37C,1.00000*%
%ADD38C,0.54000*%
%ADD39C,0.60000*%
D10*
X5180142Y6939280D02*
D03*
X12111802Y7686040D02*
D03*
X9917618Y5422900D02*
D03*
X9739818Y5854700D02*
D03*
X2724338Y7330242D02*
D03*
X3145062Y6771640D02*
D03*
X2661381Y4445000D02*
D03*
X6066978Y1216660D02*
D03*
X4962081Y7853680D02*
D03*
X8858062Y3205480D02*
D03*
X10083256Y3360420D02*
D03*
X11713942Y7264400D02*
D03*
D11*
X4680138Y6939280D02*
D03*
X11611798Y7686040D02*
D03*
X4897868Y2395054D02*
D03*
X5380468Y2032748D02*
D03*
X10167620Y5422900D02*
D03*
X10239822Y5854700D02*
D03*
X2974340Y7330242D02*
D03*
X2895060Y6771640D02*
D03*
X2911383Y4445000D02*
D03*
X2857502Y4998177D02*
D03*
X4759960Y5901878D02*
D03*
X5194054Y6210981D02*
D03*
X4991103Y4514117D02*
D03*
X5618480Y4669602D02*
D03*
X9545320Y7309038D02*
D03*
X9116060Y7656098D02*
D03*
X8188960Y7433498D02*
D03*
X11922760Y5040818D02*
D03*
X13426440Y6719758D02*
D03*
X6566982Y1216660D02*
D03*
X8486140Y5819140D02*
D03*
X11231880Y1961962D02*
D03*
X7620000Y1017458D02*
D03*
X5462080Y7853680D02*
D03*
X8358058Y3205480D02*
D03*
X9753600Y3184078D02*
D03*
X13007339Y5332918D02*
D03*
X10764520Y1619982D02*
D03*
X10333258Y3360420D02*
D03*
X11963944Y7264400D02*
D03*
X12565380Y5612856D02*
D03*
D12*
X4897868Y2145052D02*
D03*
X5380468Y2532752D02*
D03*
X2857502Y5248179D02*
D03*
X4759960Y6401882D02*
D03*
X5194054Y5960985D02*
D03*
X4991103Y4264121D02*
D03*
X5618480Y4169598D02*
D03*
X9545320Y7809042D02*
D03*
X9116060Y7406096D02*
D03*
X8188960Y7933502D02*
D03*
X11922760Y5540822D02*
D03*
X13426440Y7219762D02*
D03*
X8486140Y5319136D02*
D03*
X11231880Y1461958D02*
D03*
X7620000Y1517462D02*
D03*
X9753600Y3684082D02*
D03*
X13007339Y5832922D02*
D03*
X10764520Y1869984D02*
D03*
X12565380Y5862858D02*
D03*
D13*
X1018540Y5496560D02*
D03*
D14*
Y5750560D02*
D03*
Y6004560D02*
D03*
Y6258560D02*
D03*
D15*
X2910840Y3970020D02*
D03*
D16*
X2656840D02*
D03*
X2402840D02*
D03*
D17*
X5880103Y5687062D02*
D03*
X5626103D02*
D03*
X5372103D02*
D03*
X5118103D02*
D03*
X5880103Y4925062D02*
D03*
X5626103D02*
D03*
X5372103D02*
D03*
X4759960Y1630680D02*
D03*
X5013960D02*
D03*
X5521960D02*
D03*
X5013960Y868680D02*
D03*
X5267960D02*
D03*
X5521960D02*
D03*
X5267960Y1630680D02*
D03*
X12479020Y6888480D02*
D03*
X12225020D02*
D03*
X11971020D02*
D03*
X11717020D02*
D03*
X12479020Y6126480D02*
D03*
X12225020D02*
D03*
X11971020D02*
D03*
X10642600Y2926080D02*
D03*
X10388600D02*
D03*
X10134600D02*
D03*
X10896600Y2164080D02*
D03*
X10642600D02*
D03*
X10388600D02*
D03*
X10134600D02*
D03*
X9367520Y6182360D02*
D03*
X9621520D02*
D03*
X9875520D02*
D03*
X9113520Y6944360D02*
D03*
X9367520D02*
D03*
X9621520D02*
D03*
X9875520D02*
D03*
D18*
X5118103Y4925062D02*
D03*
X4759960Y868680D02*
D03*
X11717020Y6126480D02*
D03*
X10896600Y2926080D02*
D03*
X9113520Y6182360D02*
D03*
D19*
X11076942Y6715379D02*
D03*
X13416280Y6126099D02*
D03*
X4155441Y1133220D02*
D03*
X6141722Y2620898D02*
D03*
X8615680Y6004936D02*
D03*
X3776061Y6129061D02*
D03*
X7682540Y3385819D02*
D03*
X7962900Y5828919D02*
D03*
X7655560Y8033639D02*
D03*
X7990842Y1803018D02*
D03*
X3776061Y4629059D02*
D03*
X1696723Y4643501D02*
D03*
X1658623Y6111621D02*
D03*
X11232840Y4043680D02*
D03*
X12928600Y6233541D02*
D03*
X11412220Y4676521D02*
D03*
X11076940Y7990459D02*
D03*
X7637780Y6740779D02*
D03*
X6423658Y5090538D02*
D03*
D20*
X11076942Y5715381D02*
D03*
X13416280Y5126101D02*
D03*
X4155441Y2133218D02*
D03*
X6141722Y1620900D02*
D03*
X8615680Y7004939D02*
D03*
X3776061Y7129059D02*
D03*
X7428540Y3639819D02*
D03*
X7682540Y3893819D02*
D03*
X7962900Y4828921D02*
D03*
X7655560Y7033641D02*
D03*
X7990842Y803020D02*
D03*
X8016621Y2824480D02*
D03*
X6857622Y7856220D02*
D03*
X3776061Y5629062D02*
D03*
X1696723Y5643499D02*
D03*
X1658623Y7111619D02*
D03*
X11486840Y3789680D02*
D03*
X11232840Y3535680D02*
D03*
X12928600Y7233539D02*
D03*
X11412220Y5676519D02*
D03*
X11076940Y6990461D02*
D03*
X7637780Y5740781D02*
D03*
X6423658Y6090541D02*
D03*
D21*
X8907780Y3794760D02*
D03*
X6512563Y2583182D02*
D03*
X8237220Y6962140D02*
D03*
X4533900Y7846060D02*
D03*
X12715240Y7858760D02*
D03*
X11496041Y2499361D02*
D03*
X980439Y4632963D02*
D03*
X2794000Y6004560D02*
D03*
X12598400Y4732020D02*
D03*
D22*
X2083318Y2110740D02*
D03*
X3233679Y2125981D02*
D03*
X1059438Y2443482D02*
D03*
D23*
X2433320Y2110740D02*
D03*
X2245360Y1386840D02*
D03*
X3390903Y1396738D02*
D03*
X3583681Y2125981D02*
D03*
X1409440Y2443482D02*
D03*
D24*
X2245360Y1036843D02*
D03*
X3390903Y1046742D02*
D03*
D25*
X1569720Y7642860D02*
D03*
X3776061Y7652060D02*
D03*
X3754120Y3799840D02*
D03*
X1541780Y4094480D02*
D03*
D26*
X1569720Y7896860D02*
D03*
X3776061Y7906060D02*
D03*
X3754120Y4053840D02*
D03*
X1541780Y3840480D02*
D03*
D27*
X5933437Y6626858D02*
D03*
D28*
X6187437D02*
D03*
D29*
X795018Y1089661D02*
D03*
D30*
X1049018D02*
D03*
X2105659Y4498838D02*
D03*
X2179319Y6185403D02*
D03*
D31*
X9016624Y2824480D02*
D03*
X5857619Y7856220D02*
D03*
D32*
X2374900Y7787640D02*
D03*
D33*
X2628900D02*
D03*
X2882900D02*
D03*
D34*
X9819640Y1729740D02*
D03*
D35*
Y1475740D02*
D03*
Y1221740D02*
D03*
D36*
X2105659Y5386842D02*
D03*
X2179319Y7073402D02*
D03*
D37*
X3921760Y3159760D02*
X4655819Y3893819D01*
X7031101D01*
X7921838Y5869981D02*
Y6428581D01*
X7942369Y5849450D02*
X7950400Y5841419D01*
X7053580Y6736080D02*
X7940210Y5849450D01*
X7942369D01*
X7921838Y5869981D02*
X7962900Y5828919D01*
X7921838Y6428581D02*
X7980416Y6487160D01*
X6857622Y6932038D02*
X7053580Y6736080D01*
X10239822Y6240780D02*
X10454640D01*
X10239822Y5854700D02*
Y6240780D01*
X9993442Y6487160D02*
X10239822Y6240780D01*
Y5495102D02*
Y5854700D01*
X7980416Y6487160D02*
X9993442D01*
X12067540Y4406900D02*
Y4791436D01*
X12316922Y5040818D01*
X12612849Y5336745D01*
X11922760Y5040818D02*
X12316922D01*
X12588240Y5341620D02*
Y5584584D01*
X12593115Y5336745D02*
X13003513D01*
X2679133Y6771640D02*
X2889648D01*
X2377371Y7073402D02*
X2679133Y6771640D01*
X2179319Y7073402D02*
X2367371D01*
X2377371D02*
Y7785169D01*
X2723682Y7340242D02*
Y7492198D01*
Y7340242D02*
X2724338Y7339586D01*
Y7330242D02*
Y7339586D01*
X2654300Y7561580D02*
X2723682Y7492198D01*
X2642294Y7724749D02*
Y7774246D01*
X2628900Y7787640D02*
X2642294Y7774246D01*
X2654300Y7561580D02*
Y7712743D01*
X2642294Y7724749D02*
X2654300Y7712743D01*
X2882900Y7806582D02*
X2917900Y7841582D01*
Y7865820D01*
X2986109Y7934029D02*
X3726038D01*
X3754007Y7906060D01*
X2917900Y7865820D02*
X2986109Y7934029D01*
X3754007Y7906060D02*
X3776061D01*
X2882900Y7787640D02*
Y7806582D01*
X2974340Y7330242D02*
X3111500Y7467402D01*
Y7557887D01*
X2896294Y7773094D02*
X3111500Y7557887D01*
X2974340Y7330242D02*
X3199398Y7105184D01*
X1076960Y7764780D02*
X1183640Y7871460D01*
X1076960Y7183120D02*
X1148461Y7111619D01*
X1076960Y7183120D02*
Y7764780D01*
X1183640Y7871460D02*
X1486691D01*
X1496497Y7881266D01*
X1554126D02*
X1569720Y7896860D01*
X1496497Y7881266D02*
X1554126D01*
X1409700Y6131560D02*
X1587544D01*
X1594983Y6124121D02*
X1646123D01*
X1658623Y6111621D01*
X1018540Y6004560D02*
X1198880D01*
X1282700D02*
X1409700Y6131560D01*
X1587544D02*
X1594983Y6124121D01*
X1198880Y6004560D02*
X1282700D01*
X825659D02*
X1018540D01*
X1198880D02*
X1555158Y5648282D01*
X2536921Y5248179D02*
X2857502D01*
X2124325Y5405508D02*
X2379592D01*
X2536921Y5248179D01*
X2105659Y5386842D02*
X2124325Y5405508D01*
X1551940Y4104640D02*
Y4401820D01*
X1684223Y4631001D02*
X1696723Y4643501D01*
X1684223Y4534103D02*
Y4631001D01*
X1551940Y4401820D02*
X1684223Y4534103D01*
X1762949Y3926999D02*
Y4156128D01*
X2101968Y4495147D01*
X3340100Y3385820D02*
X3764282Y3810002D01*
X2519680Y3385820D02*
X3340100D01*
X4216400Y5123180D02*
Y5158740D01*
Y5123180D02*
X4821636Y4517944D01*
X10167620Y5422900D02*
X10239822Y5495102D01*
X10528300Y5448681D02*
Y6240780D01*
X10538619Y4300220D02*
X11960860D01*
X12067540Y4406900D01*
X12651740Y3139440D02*
Y3535680D01*
X11470435Y1958135D02*
X12651740Y3139440D01*
X11241880Y1471958D02*
X11367798D01*
X13878560Y3982720D02*
Y8280241D01*
X11367798Y1471958D02*
X13878560Y3982720D01*
X10922544Y1461958D02*
X11231880D01*
X10764520Y1619982D02*
X10922544Y1461958D01*
X4897868Y2395054D02*
X5199214D01*
X4673600D02*
Y2575560D01*
X4295140Y2954020D02*
X4673600Y2575560D01*
X2225040Y2954020D02*
X4295140D01*
X4673600Y2395054D02*
X4897868D01*
X1998980Y3180080D02*
X2225040Y2954020D01*
X767080Y5945981D02*
X825659Y6004560D01*
X767080Y4846321D02*
Y5945981D01*
Y4846321D02*
X980439Y4632963D01*
X807720Y4445902D02*
X980439Y4618621D01*
X807720Y3926840D02*
X1259840Y3474720D01*
X807720Y3926840D02*
Y4445902D01*
X1259840Y3474720D02*
X2092960D01*
X2407920Y3159760D02*
X3921760D01*
X6141722Y3004440D02*
X7031101Y3893819D01*
X11396980Y7686040D02*
X11407963Y7697023D01*
X11051540Y7340600D02*
X11396980Y7686040D01*
X1691939Y5648282D02*
X1770651D01*
X2092960Y3474720D02*
X2407920Y3159760D01*
X9540781Y5056599D02*
X9755660Y5271478D01*
X9727599Y4483701D02*
X10113679D01*
X8925562Y4441380D02*
X9540781Y5056599D01*
X10113679Y4483701D02*
X11558383D01*
X9910513Y5430005D02*
X9917618Y5422900D01*
X9739818Y5718622D02*
Y5854700D01*
Y5718622D02*
X9910513Y5547927D01*
Y5430005D02*
Y5547927D01*
X9875520Y5990402D02*
Y6182360D01*
X9739818Y5854700D02*
X9875520Y5990402D01*
X11657801Y4583119D02*
Y5275863D01*
X11922760Y5540822D01*
X10410334Y8168640D02*
X11287760D01*
X11407963Y8048437D01*
Y7697023D02*
Y8048437D01*
X11396980Y7686040D02*
X11611798D01*
X11713942Y7264400D02*
Y7583896D01*
X11611798Y7686040D02*
X11713942Y7583896D01*
X11963944Y7538182D02*
X12119422Y7693660D01*
X11963944Y7264400D02*
Y7538182D01*
X12111802Y7686040D02*
X12119422Y7693660D01*
Y8065031D01*
X11845633Y8338820D02*
X12119422Y8065031D01*
X11967482Y6892018D02*
Y7260862D01*
X11762740Y6568440D02*
X13149898D01*
X11435080Y6240780D02*
X11762740Y6568440D01*
X9418320Y4174422D02*
X9727599Y4483701D01*
X9418320Y3693160D02*
Y4174422D01*
Y3149939D02*
Y3693160D01*
X9427398Y3684082D01*
X9936160D01*
X9418320Y3149939D02*
X9583600Y2984658D01*
Y2984659D02*
X9642179Y2926080D01*
X10134600D01*
X10274680Y3184078D02*
X10388600Y3070157D01*
Y2926080D02*
Y3070157D01*
X9757022Y3184078D02*
X10274680D01*
X10333258Y3242656D01*
X4754548Y5901878D02*
X4759960D01*
X5618480Y4669602D02*
X5622291Y4673413D01*
X5466822Y4517944D02*
X5618480Y4669602D01*
X10333258Y3242656D02*
Y3355008D01*
Y3360420D02*
X10337085Y3364247D01*
Y3435905D01*
X10480040Y3578860D02*
Y4241641D01*
X10337085Y3435905D02*
X10480040Y3578860D01*
X9936160Y3684082D02*
X10073256Y3546986D01*
Y3370420D02*
Y3546986D01*
Y3370420D02*
X10083256Y3360420D01*
X10480040Y4241641D02*
X10538619Y4300220D01*
X6074874Y2608340D02*
X6074933Y2608399D01*
X5385880Y2032748D02*
X5961472Y2608340D01*
X6074933Y2608399D02*
X6129222D01*
X5961472Y2608340D02*
X6074874D01*
X6129222Y2608399D02*
X6141722Y2620898D01*
X4673600Y2093757D02*
Y2395054D01*
Y2093757D02*
X4792305Y1975052D01*
X5326912Y2522752D02*
X5370468D01*
X5380468Y2532752D01*
X5199214Y2395054D02*
X5326912Y2522752D01*
X5380468Y2032748D02*
X5385880D01*
X4897868Y2145052D02*
X5107868D01*
X5216345Y2036575D01*
X5376642D01*
X5380468Y2032748D01*
X4792305Y1975052D02*
X4931217D01*
X5267960Y1638309D01*
Y1630680D02*
Y1638309D01*
X9755660Y5271478D02*
X9766196D01*
X9917618Y5422900D01*
X5890263Y4441380D02*
Y4879547D01*
X5618480Y4169598D02*
X5890263Y4441380D01*
X8925562D01*
X5909793Y5260340D02*
X6339053Y4831080D01*
X5783580Y5260340D02*
X5909793D01*
X5626103Y5102863D02*
X5783580Y5260340D01*
X6339053Y4831080D02*
X6746240D01*
X7053580Y5138420D01*
X5626103Y4925062D02*
Y5102863D01*
X4216400Y6558280D02*
Y8303260D01*
Y6498402D02*
Y6558280D01*
X3753922D02*
X4216400D01*
X3207018Y7105184D02*
X3753922Y6558280D01*
X3199398Y7105184D02*
X3207018D01*
X2108190Y5985822D02*
X2772079D01*
X2794000Y5880099D02*
Y6004560D01*
X2411680Y3493820D02*
X2519680Y3385820D01*
X2411680Y3493820D02*
Y3961180D01*
X1874520Y5056756D02*
Y5458937D01*
X1933098Y4998177D02*
X2857502D01*
X1874520Y5056756D02*
X1933098Y4998177D01*
X1696723Y5636734D02*
X1874520Y5458937D01*
X1691939Y5648282D02*
X1696723Y5643499D01*
Y5636734D02*
Y5643499D01*
X1555158Y5648282D02*
X1691939D01*
X1770651D02*
X2108190Y5985822D01*
X1917700Y6786879D02*
Y7294880D01*
X1772920Y6642099D02*
X1917700Y6786879D01*
X1772920Y6642099D02*
X2168795Y6246224D01*
X1706880Y6576060D02*
X1744980Y6614160D01*
X1772920Y6642099D02*
Y6642099D01*
X1148080Y6576060D02*
X1706880D01*
X2168795Y6195926D02*
Y6246224D01*
Y6195926D02*
X2179319Y6185403D01*
X1033847Y6461827D02*
X1148080Y6576060D01*
X1033847Y6273867D02*
Y6461827D01*
X1569720Y7642860D02*
X1917700Y7294880D01*
X4216400Y5158740D02*
Y5882640D01*
X2794000Y5880099D02*
X3515359Y5158740D01*
X4216400D01*
X5016500Y1086961D02*
X5156359Y1226820D01*
X5372100D01*
X5524500Y1074420D01*
X8148320Y6657340D02*
X9301480D01*
X9375140Y6731000D01*
Y6936740D01*
X7955280Y6850380D02*
X8148320Y6657340D01*
X13208476Y5534055D02*
Y6509861D01*
X13149898Y6568440D02*
X13208476Y6509861D01*
X11287960Y4689021D02*
X11399720D01*
X10528300Y5448681D02*
X11287960Y4689021D01*
X11399720D02*
X11412220Y4676521D01*
X11912760Y5530822D02*
X12039760Y5657822D01*
X12366860D01*
X12558863Y5856342D02*
X12565380D01*
X12555380Y5852858D02*
X12558863Y5856342D01*
X12555380Y5846342D02*
Y5852858D01*
X12366860Y5657822D02*
X12555380Y5846342D01*
X11558383Y4483701D02*
X11657801Y4583119D01*
X13208476Y5534055D02*
X13237022Y5562600D01*
X13715781Y4599720D02*
Y5504021D01*
X13657201Y5562600D02*
X13715781Y5504021D01*
X13237022Y5562600D02*
X13657201D01*
X3137282Y6583298D02*
Y6763860D01*
X3145062Y6771640D01*
X3137282Y6583298D02*
X3591519Y6129061D01*
X3776061D01*
X2734338Y7182364D02*
Y7320242D01*
Y7182364D02*
X3145062Y6771640D01*
X4759960Y6401882D02*
X4769960Y6391882D01*
X3776061Y4097834D02*
Y4629059D01*
X3754120Y4053840D02*
Y4075894D01*
X3776061Y4097834D01*
X1692025Y3856074D02*
X1762949Y3926999D01*
X1557374Y3856074D02*
X1692025D01*
X1541780Y3840480D02*
X1557374Y3856074D01*
X3317240Y3688080D02*
Y4896999D01*
X2730147Y3583940D02*
X3213100D01*
X3317240Y3688080D01*
X2857502Y5248179D02*
X2867502Y5238180D01*
X2976059D01*
X3317240Y4896999D01*
X2911383Y4450412D02*
X2931703Y4470732D01*
Y4918564D01*
X2911383Y4445000D02*
Y4450412D01*
X2857502Y4992765D02*
X2931703Y4918564D01*
X2911111Y4444729D02*
X2911383Y4445000D01*
X1013460Y4163060D02*
X1320446Y3856074D01*
X1526186D01*
X1541780Y3840480D01*
X1018540Y5461640D02*
Y5496560D01*
X1013460Y5456560D02*
X1018540Y5461640D01*
X1013460Y5082875D02*
Y5456560D01*
Y5082875D02*
X1166939Y4929397D01*
Y4555712D02*
Y4929397D01*
X1013460Y4402233D02*
X1166939Y4555712D01*
X1013460Y4163060D02*
Y4402233D01*
X1541780Y4094480D02*
X1551940Y4104640D01*
X2402840Y3970020D02*
X2411680Y3961180D01*
X3764282Y3810002D02*
X3954782D01*
X4408901Y4264121D02*
X4991103D01*
X3954782Y3810002D02*
X4408901Y4264121D01*
X2911111Y3970291D02*
Y4444729D01*
X2671568Y3642519D02*
X2730147Y3583940D01*
X2671568Y3642519D02*
Y3690020D01*
X2656840Y3704748D02*
X2671568Y3690020D01*
X2656840Y3704748D02*
Y3970020D01*
X2910840D02*
X2911111Y3970291D01*
X2402840Y3970020D02*
Y3984720D01*
X2651584Y4233465D01*
Y4435204D01*
X2661381Y4445000D01*
X4759960Y5901878D02*
X4765372D01*
X4991103Y4264121D02*
X5085625Y4169598D01*
X5618480D01*
X4843099Y6210981D02*
X5194054D01*
X4749960Y6411882D02*
X4769960Y6391882D01*
Y6284120D02*
Y6391882D01*
Y6284120D02*
X4843099Y6210981D01*
X5194054D02*
X5197881Y6207155D01*
X4302920Y6411882D02*
X4749960D01*
X4216400Y6498402D02*
X4302920Y6411882D01*
X4735310Y5882640D02*
X4754548Y5901878D01*
X4216400Y5882640D02*
Y6129061D01*
Y5882640D02*
X4216400Y5882640D01*
X4735310D01*
X5622291Y4921251D02*
X5626103Y4925062D01*
X4994929Y4517944D02*
X5466822D01*
X4991103Y4514117D02*
X4994929Y4517944D01*
X5880103Y4925062D02*
X5889669Y4915495D01*
Y4880140D02*
X5890263Y4879547D01*
X5889669Y4880140D02*
Y4915495D01*
X4765372Y5901878D02*
X4824479Y5960985D01*
X5194054D01*
X5496560Y5825050D02*
Y6090920D01*
X5380325Y6207155D02*
X5496560Y6090920D01*
X5372103Y5700592D02*
X5496560Y5825050D01*
X5372103Y5687062D02*
Y5700592D01*
X5197881Y6207155D02*
X5380325D01*
X5622291Y4673413D02*
Y4921251D01*
X4821636Y4517944D02*
X4987276D01*
X4991103Y4514117D01*
X6857622Y6896100D02*
Y6932038D01*
Y7856220D01*
X4216400Y8338820D02*
X10075098D01*
X4180840D02*
X4216400D01*
X7053580Y5138420D02*
Y6736080D01*
X6588380Y6626858D02*
X6857622Y6896100D01*
X6187437Y6626858D02*
X6588380D01*
X9116060Y7656098D02*
X9392376D01*
X8075198D02*
X9116060D01*
X9545320Y7809042D02*
X10075098Y8338820D01*
X9392376Y7656098D02*
X9545320Y7809042D01*
X9213118Y7309038D02*
X9545320D01*
X9116060Y7406096D02*
X9213118Y7309038D01*
X9550732D02*
X10410334Y8168640D01*
X10075098Y8338820D02*
X11845633D01*
X7955280Y7536180D02*
X8075198Y7656098D01*
X7962900Y5828919D02*
X8470949D01*
X8480728Y5819140D02*
X8486140D01*
X8470949Y5828919D02*
X8480728Y5819140D01*
X10454640Y6240780D02*
X10528300D01*
X11435080D01*
X7955280Y6850380D02*
Y7536180D01*
X9367520Y6944360D02*
X9375140Y6936740D01*
X12565380Y5607444D02*
X12588240Y5584584D01*
X12565380Y5607444D02*
Y5612856D01*
X13007339Y5332918D02*
X13208476Y5534055D01*
X13003513Y5329091D02*
X13007339Y5332918D01*
X11232840Y3535680D02*
X12651740D01*
X10513219Y7340600D02*
X11051540D01*
X10454640Y6240780D02*
Y7282021D01*
X10513219Y7340600D01*
X13003513Y5336745D02*
X13007339Y5332918D01*
X12608541Y4805661D02*
X13003513Y5200633D01*
Y5329091D01*
X12608541Y4742161D02*
Y4805661D01*
X12598400Y4732020D02*
X12608541Y4742161D01*
X12479020Y6112950D02*
X12565380Y6026590D01*
Y5862858D02*
Y6026590D01*
X12479020Y6112950D02*
Y6126480D01*
X11963944Y7264400D02*
X11967482Y7260862D01*
Y6892018D02*
X11971020Y6888480D01*
X4180840Y8338820D02*
X4216400Y8303260D01*
X612299Y8338820D02*
X4180840D01*
X553720Y3238659D02*
Y8280241D01*
X612299Y8338820D01*
X11845633D02*
X13819981D01*
X13878560Y8280241D01*
X12651740Y3535680D02*
X13715781Y4599720D01*
X11235707Y1958135D02*
X11470435D01*
X11231880Y1961962D02*
X11235707Y1958135D01*
X553720Y3238659D02*
X612299Y3180080D01*
X1998980D01*
X980439Y4618621D02*
Y4632963D01*
X1018540Y6258560D02*
X1033847Y6273867D01*
X1148461Y7111619D02*
X1658623D01*
X10390652Y1853712D02*
X10633033Y2096093D01*
X10390652Y1770869D02*
X10537712Y1623808D01*
X10633033Y2096093D02*
Y2154513D01*
X10390652Y1770869D02*
Y1853712D01*
X10537712Y1623808D02*
X10755281D01*
X10759108Y1619982D01*
X6141722Y2620898D02*
Y3004440D01*
X6154221Y2593159D02*
X6775082Y1972298D01*
X627380Y2011423D02*
X1059438Y2443482D01*
X627380Y1089661D02*
Y2011423D01*
Y609759D02*
X685959Y551180D01*
X627380Y609759D02*
Y1089661D01*
X685959Y551180D02*
X5031740D01*
X5016500Y566420D02*
Y866140D01*
X10633033Y2154513D02*
X10642600Y2164080D01*
X7031101Y3893819D02*
X7675775D01*
X8351526Y3212012D02*
X8358058Y3205480D01*
X7695039Y3868498D02*
Y3874555D01*
X7682540Y3887054D02*
Y3893819D01*
X8351525Y3212012D02*
X8351526D01*
X7682540Y3887054D02*
X7695039Y3874555D01*
Y3868498D02*
X8351525Y3212012D01*
X5031740Y551180D02*
X7153722D01*
X7620000Y1017458D01*
X5016500Y566420D02*
X5031740Y551180D01*
X6716503Y868680D02*
X6775082Y927259D01*
Y1972298D01*
X5521960Y868680D02*
X6716503D01*
X5524500Y871220D02*
Y1074420D01*
X5521960Y868680D02*
X5524500Y871220D01*
X5016500D02*
Y1086961D01*
X5013960Y868680D02*
X5016500Y871220D01*
X5013960Y868680D02*
X5016500Y866140D01*
X627380Y1089661D02*
X795018D01*
X11024521Y1961962D02*
X11231880D01*
X10942542Y1879984D02*
X11024521Y1961962D01*
X10774520Y1879984D02*
X10942542D01*
X10764520Y1869984D02*
X10774520Y1879984D01*
X3776061Y6129061D02*
X4216400D01*
X3776061Y5629062D02*
Y6129061D01*
Y7129059D02*
Y7652060D01*
D38*
X11333099Y6975221D02*
X11597640Y6710680D01*
X11142385Y6975221D02*
X11333099D01*
X11597640Y6710680D02*
X12811095D01*
X13317073Y7216658D01*
X13423335D01*
X13426440Y7219762D01*
X5379723Y6939280D02*
X5654040Y6664963D01*
X5180142Y6939280D02*
X5379723D01*
X8928100Y7150100D02*
X9420860D01*
Y7145020D02*
Y7150100D01*
Y7145020D02*
X9621520Y6944360D01*
X9420860Y7150100D02*
X9739207D01*
X10564326Y7975219D01*
X11061700D01*
X5636263Y5697222D02*
Y6076956D01*
X6410073D01*
X5636263D02*
Y6167455D01*
X6472144Y6314440D02*
X6695440Y6091144D01*
Y5725042D02*
Y6091144D01*
X6423658Y5453260D02*
X6695440Y5725042D01*
X6423658Y5090538D02*
Y5453260D01*
X6391908Y5090538D02*
X6423658D01*
X5654040Y6346073D02*
Y6664963D01*
Y6346073D02*
X5685673Y6314440D01*
X6472144D01*
X6410073Y6076956D02*
X6423658Y6090541D01*
X6376033Y5074663D02*
X6391908Y5090538D01*
X6288051Y5162646D02*
X6376033Y5074663D01*
X6288051Y5162646D02*
Y5162646D01*
X6050657Y5400040D02*
X6288051Y5162646D01*
X5435600Y5400040D02*
X6050657D01*
X5373413Y5337853D02*
X5435600Y5400040D01*
X5373413Y4926373D02*
Y5337853D01*
X5372103Y4925062D02*
X5373413Y4926373D01*
X11076940Y6990461D02*
X11090525Y6976876D01*
X11140730D01*
X11142385Y6975221D01*
X11076940Y6715381D02*
Y6990461D01*
X8145399Y5567680D02*
X8625840D01*
X7962900Y5385181D02*
X8145399Y5567680D01*
X8625840D02*
X8770620Y5712460D01*
Y6004936D01*
X8615680D02*
X8770620D01*
X9209132D01*
X11061700Y7975219D02*
X11076940Y7990459D01*
X4533900Y6971277D02*
Y7846060D01*
X4565533Y6939644D02*
X4679773D01*
X4533900Y6971277D02*
X4565533Y6939644D01*
X5626103Y5687062D02*
X5636263Y5697222D01*
X4864438Y6939280D02*
X5636263Y6167455D01*
X4662278Y6939280D02*
X4864438D01*
X4541520Y7853680D02*
X4962081D01*
X4533900Y7846060D02*
X4541520Y7853680D01*
X4679773Y6939644D02*
X4680138Y6939280D01*
X5654040Y6664963D02*
X5895333D01*
X5933437Y6626858D01*
X5857619Y7856220D02*
X5866739Y7865340D01*
Y7968087D02*
X6016492Y8117840D01*
X7571359D01*
X5866739Y7865340D02*
Y7968087D01*
X5464620Y7856220D02*
X5857619D01*
X7571359Y8117840D02*
X7655560Y8033639D01*
X8216900Y7043273D02*
X8218277Y7041895D01*
X8216900Y7043273D02*
Y7387698D01*
X8188960Y7415638D02*
X8216900Y7387698D01*
X8218277Y6981083D02*
X8237220Y6962140D01*
X8188960Y7415638D02*
Y7433498D01*
X8218277Y6981083D02*
Y7041895D01*
X8201588Y7420870D02*
X8367049D01*
X8188960Y7433498D02*
X8201588Y7420870D01*
X7962900Y4828921D02*
Y5385181D01*
X8161761Y4679421D02*
X8486140Y5003800D01*
Y5319136D01*
X7781819Y4679421D02*
X8161761D01*
X7464624Y4996616D02*
Y5567625D01*
Y4996616D02*
X7781819Y4679421D01*
X7464624Y5567625D02*
X7637780Y5740781D01*
X8602796Y7017823D02*
Y7185122D01*
X8367049Y7420870D02*
X8602796Y7185122D01*
X8782939Y7004939D02*
X8928100Y7150100D01*
X8615680Y7004939D02*
X8782939D01*
X8758296Y5319136D02*
X9621520Y6182360D01*
X8486140Y5319136D02*
X8758296D01*
X9367520Y6163323D02*
Y6182360D01*
X9209132Y6004936D02*
X9367520Y6163323D01*
X8602796Y7017823D02*
X8615680Y7004939D01*
X7646670Y7024751D02*
X7655560Y7033641D01*
X7646670Y6749669D02*
Y7024751D01*
X7637780Y6740779D02*
X7646670Y6749669D01*
X7655560Y7520782D02*
X8042880Y7908102D01*
X7655560Y7033641D02*
Y7520782D01*
X8042880Y7908102D02*
X8163560D01*
X8188960Y7933502D01*
D39*
X13511417Y6712604D02*
X13685519Y6538501D01*
X13433594Y6712604D02*
X13511417D01*
X13426440Y6719758D02*
X13433594Y6712604D01*
X13659579Y6512560D02*
X13685519Y6538501D01*
X13448779Y6301761D02*
X13659579Y6512560D01*
X13685519Y6538501D02*
Y7538720D01*
X13448779Y6158599D02*
Y6301761D01*
X13365480Y7858760D02*
X13685519Y7538720D01*
X12715240Y7858760D02*
X13365480D01*
X6512563Y2583182D02*
X6979920Y2115825D01*
Y820352D02*
Y2115825D01*
X6863148Y703580D02*
X6979920Y820352D01*
X3700780Y1630680D02*
X4759960D01*
X3268679Y2062781D02*
X3700780Y1630680D01*
X3233679Y2125981D02*
X3268679Y2090981D01*
Y2062781D02*
Y2090981D01*
X5484625Y1396235D02*
Y1396236D01*
Y1568991D02*
X5521960Y1606326D01*
X5484625Y1396236D02*
Y1568991D01*
X3391405Y1396236D02*
X5484625D01*
X5521960Y1606326D02*
Y1630680D01*
X5484625Y1396235D02*
X5664200Y1216660D01*
X6066978D01*
X11076942Y5524498D02*
X11254740Y5346700D01*
X11445240D02*
X12225020Y6126480D01*
X11254740Y5346700D02*
X11445240D01*
X11076942Y5524498D02*
Y5715381D01*
X12715240Y7708900D02*
X12928600Y7495540D01*
Y7233539D02*
Y7495540D01*
X12715240Y7708900D02*
Y7858760D01*
X12402439Y7233539D02*
X12928600D01*
X12047220Y6418580D02*
X12809198D01*
X11971020Y6342380D02*
X12047220Y6418580D01*
X11971020Y6103201D02*
Y6342380D01*
X12260167Y6296660D02*
X12657133D01*
X12225020Y6261513D02*
X12260167Y6296660D01*
X12225020Y6103376D02*
Y6261513D01*
X10388600Y2499361D02*
X11496041D01*
X10388600Y2164080D02*
Y2499361D01*
X10063481D02*
X10388600D01*
X9888220Y2324100D02*
X10063481Y2499361D01*
X10607040Y2661507D02*
X10642187Y2626360D01*
X11041380D01*
X11272743Y2857723D01*
X10607040Y2661507D02*
Y2866166D01*
X10960340Y3219832D02*
X11272743Y2907429D01*
Y2857723D02*
Y2907429D01*
X10607040Y2866166D02*
X10642600Y2901726D01*
Y2926080D01*
X4541995Y1815625D02*
X4829015D01*
X4447540Y1910080D02*
Y2491126D01*
Y1910080D02*
X4541995Y1815625D01*
X4157109Y2781557D02*
X4447540Y2491126D01*
X4829015Y1815625D02*
X5013960Y1630680D01*
X3390903Y1396738D02*
X3409845D01*
X3147322D02*
X3409845D01*
X8016621Y2824480D02*
X9162161Y1678940D01*
X9768840D01*
X12225020Y7056120D02*
X12402439Y7233539D01*
X12225020Y6888480D02*
Y7056120D01*
X12875780Y6266041D02*
X12896100D01*
X12928600Y6233541D01*
X12875780Y6266041D02*
Y6351998D01*
X12809198Y6418580D02*
X12875780Y6351998D01*
X11544338Y5676519D02*
X11971020Y6103201D01*
X11412220Y5676519D02*
X11544338D01*
X12863676Y4043680D02*
X13416280Y4596283D01*
Y5126101D01*
X13002260Y5838002D02*
Y6017673D01*
Y5838002D02*
X13007339Y5832922D01*
X12951591Y6068341D02*
X13002260Y6017673D01*
X12750081Y6068341D02*
X12951591D01*
X12692280Y6126142D02*
X12750081Y6068341D01*
X12692280Y6126142D02*
Y6261513D01*
X12657133Y6296660D02*
X12692280Y6261513D01*
X11232840Y4043680D02*
X12863676D01*
X13416280Y6126099D02*
X13448779Y6158599D01*
X11080340Y4043680D02*
X11232840D01*
X10960340Y3219832D02*
Y3923680D01*
X11080340Y4043680D01*
X11271173Y3789680D02*
X11486840D01*
X11080340Y3598848D02*
X11271173Y3789680D01*
X11080340Y3269537D02*
Y3598848D01*
Y3269537D02*
X11496041Y2853836D01*
Y2523387D02*
Y2853836D01*
X8858062Y3205480D02*
X9016624Y3046918D01*
Y2824480D02*
Y3046918D01*
X8858062Y3205480D02*
Y3719876D01*
X8907780Y3769594D01*
Y3794760D01*
X6514302Y2581442D02*
Y2725582D01*
X7428540Y3639819D01*
X7500207Y1517462D02*
X7754755D01*
X7958341Y1721048D02*
Y1770518D01*
X7754755Y1517462D02*
X7958341Y1721048D01*
Y1770518D02*
X7990842Y1803018D01*
X1074725Y1089661D02*
X1127543Y1036843D01*
X1049018Y1089661D02*
X1074725D01*
X1127543Y1036843D02*
X2245360D01*
X1978660Y1303543D02*
Y1780540D01*
X2083318Y1885198D01*
X1978660Y1303543D02*
X2245360Y1036843D01*
X2083318Y1885198D02*
Y2110740D01*
X2476242Y2067818D02*
X3147322Y1396738D01*
X2245360Y1386840D02*
X2433320Y1574800D01*
Y2110740D01*
X2476242Y2067818D01*
Y2110740D01*
X2245360Y1036843D02*
X2372622Y909582D01*
X3253743D01*
X3390903Y1046742D01*
X4495420Y1133220D02*
X4759960Y868680D01*
X4155441Y1133220D02*
X4495420D01*
X3585142Y2124519D02*
X4146743D01*
X4155441Y2133218D01*
X3583681Y2125981D02*
X3585142Y2124519D01*
X2433320Y2110740D02*
X2476242D01*
X1409440Y2629691D02*
X1561306Y2781557D01*
X1409440Y2443482D02*
Y2629691D01*
X1561306Y2781557D02*
X4157109D01*
X9888220Y1990983D02*
Y2324100D01*
Y1990983D02*
X10006720Y1872483D01*
X9768840Y1678940D02*
X9819640Y1729740D01*
X8409561Y1221740D02*
X9819640D01*
X7990842Y803020D02*
X8409561Y1221740D01*
X5410200Y703580D02*
X6863148D01*
X5267960Y845820D02*
X5410200Y703580D01*
X5267960Y845820D02*
Y868680D01*
X6141722Y1620900D02*
X6534482Y1228140D01*
X6555502D02*
X6566982Y1216660D01*
X6534482Y1228140D02*
X6555502D01*
X9840840Y1496940D02*
X9953999D01*
X9819640Y1475740D02*
X9840840Y1496940D01*
X10006720Y1549661D02*
Y1872483D01*
X9953999Y1496940D02*
X10006720Y1549661D01*
X7279913Y1737756D02*
Y3196652D01*
Y1737756D02*
X7500207Y1517462D01*
X7651580Y3416779D02*
X7682540Y3385819D01*
X7500039Y3416779D02*
X7651580D01*
X7279913Y3196652D02*
X7500039Y3416779D01*
%TF.MD5,457b320ccfe05736bdc0fa4a970b4b97*%
M02*
