G04*
G04 #@! TF.GenerationSoftware,Altium Limited,Altium Designer,24.1.2 (44)*
G04*
G04 Layer_Color=65535*
%FSLAX44Y44*%
%MOMM*%
G71*
G04*
G04 #@! TF.SameCoordinates,E204E7A5-C73A-44C7-B091-18F4FEE64288*
G04*
G04*
G04 #@! TF.FilePolarity,Positive*
G04*
G01*
G75*
%ADD10C,0.2500*%
%ADD11C,0.6000*%
%ADD12C,0.2000*%
%ADD13C,0.1270*%
%ADD14C,0.1500*%
%ADD15C,0.2540*%
G36*
X1410466Y324796D02*
X1409393D01*
Y323723D01*
X1408320D01*
Y321577D01*
X1407247D01*
Y320504D01*
X1406174D01*
Y319431D01*
X1405101D01*
Y318358D01*
X1404028D01*
Y316211D01*
X1402955D01*
Y315138D01*
X1401881D01*
Y314065D01*
X1400808D01*
Y311919D01*
X1399735D01*
Y310846D01*
X1398662D01*
Y309773D01*
X1397589D01*
Y308700D01*
X1396516D01*
Y306554D01*
X1395443D01*
Y305481D01*
X1394370D01*
Y304408D01*
X1393297D01*
Y302262D01*
X1392224D01*
Y301189D01*
X1391151D01*
Y300116D01*
X1390078D01*
Y302262D01*
X1391151D01*
Y303335D01*
X1392224D01*
Y305481D01*
X1393297D01*
Y306554D01*
X1394370D01*
Y307627D01*
X1395443D01*
Y309773D01*
X1396516D01*
Y310846D01*
X1397589D01*
Y312992D01*
X1395443D01*
Y311919D01*
X1394370D01*
Y310846D01*
X1393297D01*
Y309773D01*
X1392224D01*
Y308700D01*
X1391151D01*
Y307627D01*
X1390078D01*
Y306554D01*
X1389005D01*
Y305481D01*
X1386859D01*
Y304408D01*
X1385786D01*
Y303335D01*
X1384713D01*
Y302262D01*
X1383639D01*
Y301189D01*
X1382566D01*
Y300116D01*
X1381493D01*
Y299042D01*
X1380420D01*
Y297969D01*
X1379347D01*
Y296896D01*
X1377201D01*
Y295823D01*
X1376128D01*
Y294750D01*
X1375055D01*
Y293677D01*
X1373982D01*
Y292604D01*
X1372909D01*
Y291531D01*
X1371836D01*
Y290458D01*
X1370763D01*
Y289385D01*
X1369690D01*
Y288312D01*
X1368617D01*
Y287239D01*
X1367543D01*
Y286166D01*
X1366470D01*
Y285093D01*
X1365397D01*
Y284020D01*
X1364324D01*
Y282946D01*
X1363251D01*
Y281873D01*
X1362178D01*
Y280800D01*
X1361105D01*
Y279727D01*
X1360032D01*
Y277581D01*
X1358959D01*
Y276508D01*
X1357886D01*
Y272216D01*
X1358959D01*
Y271143D01*
X1360032D01*
Y268997D01*
X1361105D01*
Y267924D01*
X1363251D01*
Y266851D01*
X1364324D01*
Y265777D01*
X1365397D01*
Y264704D01*
X1366470D01*
Y263631D01*
X1367543D01*
Y262558D01*
X1368617D01*
Y261485D01*
X1370763D01*
Y260412D01*
X1371836D01*
Y259339D01*
X1372909D01*
Y258266D01*
X1373982D01*
Y257193D01*
X1376128D01*
Y256120D01*
X1377201D01*
Y255047D01*
X1378274D01*
Y253974D01*
X1380420D01*
Y252901D01*
X1382566D01*
Y251828D01*
X1383639D01*
Y250755D01*
X1385786D01*
Y249682D01*
X1387932D01*
Y248609D01*
X1389005D01*
Y247535D01*
X1391151D01*
Y246462D01*
X1393297D01*
Y245389D01*
X1394370D01*
Y244316D01*
X1395443D01*
Y243243D01*
X1396516D01*
Y242170D01*
X1397589D01*
Y241097D01*
X1398662D01*
Y240024D01*
X1399735D01*
Y237878D01*
X1400808D01*
Y233586D01*
X1401881D01*
Y227147D01*
X1400808D01*
Y221782D01*
X1399735D01*
Y218563D01*
X1398662D01*
Y215344D01*
X1397589D01*
Y214271D01*
X1396516D01*
Y212125D01*
X1395443D01*
Y211052D01*
X1393297D01*
Y209979D01*
X1390078D01*
Y208905D01*
X1387932D01*
Y209979D01*
X1384713D01*
Y211052D01*
X1383639D01*
Y212125D01*
X1382566D01*
Y213198D01*
X1381493D01*
Y214271D01*
X1379347D01*
Y215344D01*
X1377201D01*
Y216417D01*
X1375055D01*
Y217490D01*
X1356813D01*
Y216417D01*
X1341790D01*
Y217490D01*
X1335352D01*
Y218563D01*
X1332133D01*
Y219636D01*
X1329987D01*
Y220709D01*
X1328913D01*
Y221782D01*
X1326767D01*
Y222855D01*
X1325694D01*
Y223928D01*
X1324621D01*
Y226074D01*
X1323548D01*
Y228221D01*
X1322475D01*
Y231440D01*
X1321402D01*
Y244316D01*
X1320329D01*
Y242170D01*
X1319256D01*
Y241097D01*
X1318183D01*
Y238951D01*
X1317110D01*
Y236805D01*
X1316037D01*
Y231440D01*
X1314964D01*
Y230367D01*
X1316037D01*
Y225001D01*
X1317110D01*
Y222855D01*
X1318183D01*
Y220709D01*
X1319256D01*
Y219636D01*
X1320329D01*
Y218563D01*
X1321402D01*
Y217490D01*
X1322475D01*
Y216417D01*
X1323548D01*
Y215344D01*
X1324621D01*
Y214271D01*
X1326767D01*
Y213198D01*
X1327840D01*
Y212125D01*
X1331060D01*
Y211052D01*
X1333206D01*
Y209979D01*
X1337498D01*
Y208905D01*
X1347155D01*
Y207832D01*
X1354667D01*
Y206759D01*
X1357886D01*
Y205686D01*
X1362178D01*
Y204613D01*
X1365397D01*
Y203540D01*
X1368617D01*
Y202467D01*
X1370763D01*
Y201394D01*
X1372909D01*
Y200321D01*
X1375055D01*
Y199248D01*
X1377201D01*
Y198175D01*
X1379347D01*
Y197102D01*
X1380420D01*
Y196029D01*
X1382566D01*
Y194956D01*
X1383639D01*
Y193883D01*
X1385786D01*
Y192810D01*
X1386859D01*
Y191737D01*
X1387932D01*
Y190663D01*
X1389005D01*
Y189590D01*
X1390078D01*
Y188517D01*
X1391151D01*
Y187444D01*
X1392224D01*
Y186371D01*
X1393297D01*
Y185298D01*
X1394370D01*
Y183152D01*
X1395443D01*
Y182079D01*
X1396516D01*
Y181006D01*
X1397589D01*
Y178860D01*
X1398662D01*
Y177787D01*
X1399735D01*
Y175641D01*
X1400808D01*
Y173494D01*
X1401881D01*
Y171348D01*
X1402955D01*
Y169202D01*
X1404028D01*
Y165983D01*
X1405101D01*
Y162764D01*
X1406174D01*
Y158472D01*
X1407247D01*
Y157399D01*
X1406174D01*
Y156326D01*
X1400808D01*
Y155252D01*
X1395443D01*
Y154179D01*
X1390078D01*
Y153106D01*
X1383639D01*
Y156326D01*
X1382566D01*
Y159545D01*
X1381493D01*
Y162764D01*
X1380420D01*
Y164910D01*
X1379347D01*
Y167056D01*
X1378274D01*
Y169202D01*
X1377201D01*
Y171348D01*
X1376128D01*
Y172421D01*
X1375055D01*
Y174568D01*
X1373982D01*
Y175641D01*
X1372909D01*
Y176714D01*
X1371836D01*
Y178860D01*
X1370763D01*
Y179933D01*
X1369690D01*
Y181006D01*
X1368617D01*
Y182079D01*
X1367543D01*
Y183152D01*
X1365397D01*
Y184225D01*
X1364324D01*
Y185298D01*
X1363251D01*
Y186371D01*
X1361105D01*
Y187444D01*
X1358959D01*
Y188517D01*
X1356813D01*
Y189590D01*
X1354667D01*
Y190663D01*
X1352521D01*
Y191737D01*
X1349301D01*
Y192810D01*
X1346082D01*
Y193883D01*
X1341790D01*
Y194956D01*
X1337498D01*
Y196029D01*
X1333206D01*
Y197102D01*
X1326767D01*
Y198175D01*
X1319256D01*
Y199248D01*
X1318183D01*
Y197102D01*
X1320329D01*
Y196029D01*
X1321402D01*
Y194956D01*
X1323548D01*
Y193883D01*
X1324621D01*
Y192810D01*
X1326767D01*
Y191737D01*
X1327840D01*
Y190663D01*
X1328913D01*
Y189590D01*
X1331060D01*
Y188517D01*
X1332133D01*
Y187444D01*
X1333206D01*
Y186371D01*
X1334279D01*
Y185298D01*
X1335352D01*
Y184225D01*
X1336425D01*
Y183152D01*
X1337498D01*
Y182079D01*
X1338571D01*
Y181006D01*
X1339644D01*
Y179933D01*
X1340717D01*
Y178860D01*
X1341790D01*
Y176714D01*
X1342863D01*
Y175641D01*
X1343936D01*
Y173494D01*
X1345009D01*
Y172421D01*
X1346082D01*
Y170275D01*
X1347155D01*
Y168129D01*
X1348228D01*
Y164910D01*
X1349301D01*
Y160618D01*
X1350375D01*
Y149887D01*
X1323548D01*
Y150960D01*
X1316037D01*
Y152033D01*
X1310671D01*
Y153106D01*
X1305306D01*
Y154179D01*
X1302087D01*
Y155252D01*
X1297795D01*
Y156326D01*
X1294576D01*
Y157399D01*
X1292429D01*
Y158472D01*
X1289210D01*
Y159545D01*
X1287064D01*
Y160618D01*
X1284918D01*
Y161691D01*
X1282772D01*
Y162764D01*
X1280626D01*
Y163837D01*
X1279553D01*
Y164910D01*
X1277407D01*
Y165983D01*
X1276333D01*
Y167056D01*
X1275260D01*
Y168129D01*
X1273114D01*
Y169202D01*
X1272041D01*
Y170275D01*
X1270968D01*
Y171348D01*
X1269895D01*
Y172421D01*
X1268822D01*
Y173494D01*
X1267749D01*
Y174568D01*
X1266676D01*
Y175641D01*
X1265603D01*
Y177787D01*
X1264530D01*
Y178860D01*
X1263457D01*
Y179933D01*
X1262384D01*
Y182079D01*
X1261311D01*
Y183152D01*
X1260238D01*
Y185298D01*
X1259165D01*
Y187444D01*
X1258092D01*
Y189590D01*
X1257018D01*
Y192810D01*
X1255945D01*
Y196029D01*
X1254872D01*
Y200321D01*
X1253799D01*
Y206759D01*
X1252726D01*
Y216417D01*
X1251653D01*
Y215344D01*
X1250580D01*
Y214271D01*
X1249507D01*
Y213198D01*
X1248434D01*
Y212125D01*
X1247361D01*
Y209979D01*
X1246288D01*
Y208905D01*
X1245215D01*
Y207832D01*
X1244142D01*
Y205686D01*
X1243069D01*
Y204613D01*
X1241996D01*
Y203540D01*
X1240923D01*
Y201394D01*
X1239849D01*
Y200321D01*
X1238776D01*
Y198175D01*
X1237703D01*
Y196029D01*
X1236630D01*
Y194956D01*
X1235557D01*
Y192810D01*
X1234484D01*
Y190663D01*
X1233411D01*
Y188517D01*
X1232338D01*
Y185298D01*
X1231265D01*
Y183152D01*
X1230192D01*
Y179933D01*
X1229119D01*
Y176714D01*
X1228046D01*
Y172421D01*
X1225900D01*
Y198175D01*
X1226973D01*
Y204613D01*
X1228046D01*
Y209979D01*
X1229119D01*
Y214271D01*
X1230192D01*
Y217490D01*
X1231265D01*
Y220709D01*
X1232338D01*
Y223928D01*
X1233411D01*
Y226074D01*
X1234484D01*
Y229293D01*
X1235557D01*
Y231440D01*
X1236630D01*
Y233586D01*
X1237703D01*
Y234659D01*
X1238776D01*
Y236805D01*
X1239849D01*
Y238951D01*
X1240923D01*
Y240024D01*
X1241996D01*
Y242170D01*
X1243069D01*
Y243243D01*
X1244142D01*
Y244316D01*
X1245215D01*
Y246462D01*
X1246288D01*
Y247535D01*
X1247361D01*
Y248609D01*
X1248434D01*
Y249682D01*
X1249507D01*
Y251828D01*
X1250580D01*
Y252901D01*
X1251653D01*
Y253974D01*
X1252726D01*
Y255047D01*
X1253799D01*
Y256120D01*
X1254872D01*
Y257193D01*
X1255945D01*
Y258266D01*
X1257018D01*
Y259339D01*
X1258092D01*
Y260412D01*
X1259165D01*
Y261485D01*
X1260238D01*
Y262558D01*
X1262384D01*
Y263631D01*
X1263457D01*
Y264704D01*
X1264530D01*
Y265777D01*
X1265603D01*
Y266851D01*
X1267749D01*
Y267924D01*
X1268822D01*
Y268997D01*
X1270968D01*
Y270070D01*
X1272041D01*
Y271143D01*
X1274187D01*
Y272216D01*
X1276333D01*
Y273289D01*
X1278480D01*
Y274362D01*
X1280626D01*
Y275435D01*
X1282772D01*
Y276508D01*
X1284918D01*
Y277581D01*
X1288137D01*
Y278654D01*
X1289210D01*
Y279727D01*
X1284918D01*
Y278654D01*
X1277407D01*
Y277581D01*
X1270968D01*
Y276508D01*
X1266676D01*
Y275435D01*
X1262384D01*
Y276508D01*
X1264530D01*
Y277581D01*
X1265603D01*
Y278654D01*
X1267749D01*
Y279727D01*
X1268822D01*
Y280800D01*
X1270968D01*
Y281873D01*
X1273114D01*
Y282946D01*
X1275260D01*
Y284020D01*
X1277407D01*
Y285093D01*
X1279553D01*
Y286166D01*
X1282772D01*
Y287239D01*
X1284918D01*
Y288312D01*
X1288137D01*
Y289385D01*
X1292429D01*
Y290458D01*
X1296722D01*
Y291531D01*
X1298868D01*
Y290458D01*
X1299941D01*
Y287239D01*
X1301014D01*
Y285093D01*
X1302087D01*
Y282946D01*
X1303160D01*
Y280800D01*
X1304233D01*
Y279727D01*
X1305306D01*
Y278654D01*
X1307452D01*
Y277581D01*
X1309598D01*
Y276508D01*
X1310671D01*
Y279727D01*
X1309598D01*
Y280800D01*
X1308525D01*
Y281873D01*
X1307452D01*
Y285093D01*
X1306379D01*
Y287239D01*
X1305306D01*
Y293677D01*
X1304233D01*
Y301189D01*
X1305306D01*
Y306554D01*
X1308525D01*
Y305481D01*
X1310671D01*
Y304408D01*
X1312818D01*
Y303335D01*
X1314964D01*
Y302262D01*
X1317110D01*
Y301189D01*
X1318183D01*
Y300116D01*
X1320329D01*
Y299042D01*
X1321402D01*
Y297969D01*
X1322475D01*
Y296896D01*
X1323548D01*
Y294750D01*
X1324621D01*
Y293677D01*
X1325694D01*
Y291531D01*
X1326767D01*
Y290458D01*
X1327840D01*
Y287239D01*
X1328913D01*
Y285093D01*
X1329987D01*
Y281873D01*
X1331060D01*
Y284020D01*
X1332133D01*
Y288312D01*
X1333206D01*
Y290458D01*
X1334279D01*
Y291531D01*
X1335352D01*
Y292604D01*
X1336425D01*
Y293677D01*
X1338571D01*
Y294750D01*
X1343936D01*
Y293677D01*
X1346082D01*
Y292604D01*
X1347155D01*
Y291531D01*
X1348228D01*
Y290458D01*
X1349301D01*
Y285093D01*
X1350375D01*
Y284020D01*
X1349301D01*
Y281873D01*
X1351448D01*
Y282946D01*
X1353594D01*
Y284020D01*
X1354667D01*
Y285093D01*
X1355740D01*
Y286166D01*
X1357886D01*
Y287239D01*
X1358959D01*
Y288312D01*
X1360032D01*
Y289385D01*
X1362178D01*
Y290458D01*
X1363251D01*
Y291531D01*
X1364324D01*
Y292604D01*
X1366470D01*
Y293677D01*
X1367543D01*
Y294750D01*
X1368617D01*
Y295823D01*
X1370763D01*
Y296896D01*
X1371836D01*
Y297969D01*
X1372909D01*
Y299042D01*
X1375055D01*
Y300116D01*
X1376128D01*
Y301189D01*
X1377201D01*
Y302262D01*
X1379347D01*
Y303335D01*
X1380420D01*
Y304408D01*
X1381493D01*
Y305481D01*
X1383639D01*
Y306554D01*
X1384713D01*
Y307627D01*
X1385786D01*
Y308700D01*
X1387932D01*
Y309773D01*
X1389005D01*
Y310846D01*
X1390078D01*
Y311919D01*
X1391151D01*
Y312992D01*
X1393297D01*
Y314065D01*
X1394370D01*
Y315138D01*
X1395443D01*
Y316211D01*
X1397589D01*
Y317284D01*
X1398662D01*
Y318358D01*
X1400808D01*
Y319431D01*
X1401881D01*
Y320504D01*
X1402955D01*
Y321577D01*
X1404028D01*
Y322650D01*
X1406174D01*
Y323723D01*
X1407247D01*
Y324796D01*
X1408320D01*
Y325869D01*
X1410466D01*
Y324796D01*
D02*
G37*
G36*
X1390078Y297969D02*
X1389005D01*
Y296896D01*
X1387932D01*
Y299042D01*
X1389005D01*
Y300116D01*
X1390078D01*
Y297969D01*
D02*
G37*
G36*
X1387932Y295823D02*
X1386859D01*
Y296896D01*
X1387932D01*
Y295823D01*
D02*
G37*
G36*
X1386859Y294750D02*
X1385786D01*
Y295823D01*
X1386859D01*
Y294750D01*
D02*
G37*
G36*
X1384713Y291531D02*
X1383639D01*
Y292604D01*
X1384713D01*
Y291531D01*
D02*
G37*
G36*
X1348228Y132718D02*
X1351448D01*
Y131645D01*
X1352521D01*
Y128426D01*
X1353594D01*
Y123061D01*
X1352521D01*
Y118768D01*
X1351448D01*
Y115549D01*
X1350375D01*
Y114476D01*
X1349301D01*
Y112330D01*
X1348228D01*
Y110184D01*
X1347155D01*
Y109111D01*
X1346082D01*
Y108038D01*
X1345009D01*
Y106965D01*
X1343936D01*
Y105892D01*
X1342863D01*
Y104819D01*
X1340717D01*
Y103746D01*
X1338571D01*
Y102673D01*
X1328913D01*
Y103746D01*
X1326767D01*
Y104819D01*
X1325694D01*
Y106965D01*
X1324621D01*
Y118768D01*
X1325694D01*
Y121988D01*
X1326767D01*
Y124134D01*
X1327840D01*
Y125207D01*
X1328913D01*
Y127353D01*
X1329987D01*
Y128426D01*
X1331060D01*
Y129499D01*
X1332133D01*
Y130572D01*
X1333206D01*
Y131645D01*
X1334279D01*
Y132718D01*
X1336425D01*
Y133791D01*
X1340717D01*
Y132718D01*
X1345009D01*
Y133791D01*
X1348228D01*
Y132718D01*
D02*
G37*
G36*
X1320329D02*
X1322475D01*
Y131645D01*
X1323548D01*
Y130572D01*
X1324621D01*
Y126280D01*
X1323548D01*
Y124134D01*
X1322475D01*
Y123061D01*
X1321402D01*
Y121988D01*
X1320329D01*
Y120914D01*
X1316037D01*
Y123061D01*
X1317110D01*
Y125207D01*
X1318183D01*
Y127353D01*
X1319256D01*
Y129499D01*
X1318183D01*
Y130572D01*
X1313891D01*
Y129499D01*
X1311745D01*
Y128426D01*
X1310671D01*
Y127353D01*
X1309598D01*
Y126280D01*
X1308525D01*
Y125207D01*
X1307452D01*
Y123061D01*
X1306379D01*
Y120914D01*
X1305306D01*
Y117695D01*
X1304233D01*
Y114476D01*
X1303160D01*
Y110184D01*
X1304233D01*
Y108038D01*
X1305306D01*
Y106965D01*
X1307452D01*
Y105892D01*
X1309598D01*
Y106965D01*
X1312818D01*
Y108038D01*
X1314964D01*
Y109111D01*
X1316037D01*
Y110184D01*
X1317110D01*
Y111257D01*
X1318183D01*
Y108038D01*
X1316037D01*
Y106965D01*
X1314964D01*
Y105892D01*
X1313891D01*
Y104819D01*
X1311745D01*
Y103746D01*
X1309598D01*
Y102673D01*
X1302087D01*
Y103746D01*
X1299941D01*
Y104819D01*
X1298868D01*
Y105892D01*
X1297795D01*
Y110184D01*
X1296722D01*
Y112330D01*
X1297795D01*
Y117695D01*
X1298868D01*
Y119841D01*
X1299941D01*
Y121988D01*
X1301014D01*
Y124134D01*
X1302087D01*
Y125207D01*
X1303160D01*
Y127353D01*
X1304233D01*
Y128426D01*
X1305306D01*
Y129499D01*
X1307452D01*
Y130572D01*
X1308525D01*
Y131645D01*
X1310671D01*
Y132718D01*
X1314964D01*
Y133791D01*
X1320329D01*
Y132718D01*
D02*
G37*
G36*
X1409393D02*
X1411539D01*
Y128426D01*
X1410466D01*
Y126280D01*
X1409393D01*
Y123061D01*
X1408320D01*
Y119841D01*
X1407247D01*
Y117695D01*
X1406174D01*
Y114476D01*
X1405101D01*
Y111257D01*
X1404028D01*
Y108038D01*
X1402955D01*
Y103746D01*
X1401881D01*
Y102673D01*
X1396516D01*
Y103746D01*
X1395443D01*
Y106965D01*
X1394370D01*
Y110184D01*
X1393297D01*
Y115549D01*
X1392224D01*
Y118768D01*
X1391151D01*
Y121988D01*
X1389005D01*
Y118768D01*
X1387932D01*
Y115549D01*
X1386859D01*
Y113403D01*
X1385786D01*
Y110184D01*
X1384713D01*
Y105892D01*
X1383639D01*
Y102673D01*
X1381493D01*
Y103746D01*
X1379347D01*
Y105892D01*
X1380420D01*
Y109111D01*
X1381493D01*
Y112330D01*
X1382566D01*
Y114476D01*
X1383639D01*
Y117695D01*
X1384713D01*
Y120914D01*
X1385786D01*
Y123061D01*
X1386859D01*
Y126280D01*
X1387932D01*
Y130572D01*
X1386859D01*
Y131645D01*
X1385786D01*
Y132718D01*
X1387932D01*
Y133791D01*
X1391151D01*
Y132718D01*
X1393297D01*
Y131645D01*
X1394370D01*
Y128426D01*
X1395443D01*
Y125207D01*
X1396516D01*
Y120914D01*
X1397589D01*
Y115549D01*
X1398662D01*
Y111257D01*
X1399735D01*
Y110184D01*
X1400808D01*
Y113403D01*
X1401881D01*
Y116622D01*
X1402955D01*
Y118768D01*
X1404028D01*
Y121988D01*
X1405101D01*
Y125207D01*
X1406174D01*
Y128426D01*
X1407247D01*
Y132718D01*
X1408320D01*
Y133791D01*
X1409393D01*
Y132718D01*
D02*
G37*
G36*
X1282772D02*
X1283845D01*
Y128426D01*
X1282772D01*
Y125207D01*
X1281699D01*
Y123061D01*
X1280626D01*
Y119841D01*
X1279553D01*
Y116622D01*
X1278480D01*
Y114476D01*
X1277407D01*
Y111257D01*
X1276333D01*
Y108038D01*
X1275260D01*
Y103746D01*
X1274187D01*
Y102673D01*
X1268822D01*
Y104819D01*
X1267749D01*
Y108038D01*
X1266676D01*
Y111257D01*
X1265603D01*
Y115549D01*
X1264530D01*
Y119841D01*
X1263457D01*
Y123061D01*
X1262384D01*
Y120914D01*
X1261311D01*
Y118768D01*
X1260238D01*
Y115549D01*
X1259165D01*
Y112330D01*
X1258092D01*
Y109111D01*
X1257018D01*
Y105892D01*
X1255945D01*
Y102673D01*
X1253799D01*
Y103746D01*
X1251653D01*
Y105892D01*
X1252726D01*
Y109111D01*
X1253799D01*
Y111257D01*
X1254872D01*
Y114476D01*
X1255945D01*
Y117695D01*
X1257018D01*
Y119841D01*
X1258092D01*
Y123061D01*
X1259165D01*
Y125207D01*
X1260238D01*
Y130572D01*
X1259165D01*
Y132718D01*
X1260238D01*
Y133791D01*
X1263457D01*
Y132718D01*
X1265603D01*
Y131645D01*
X1266676D01*
Y128426D01*
X1267749D01*
Y125207D01*
X1268822D01*
Y120914D01*
X1269895D01*
Y115549D01*
X1270968D01*
Y112330D01*
X1272041D01*
Y110184D01*
X1273114D01*
Y112330D01*
X1274187D01*
Y115549D01*
X1275260D01*
Y118768D01*
X1276333D01*
Y120914D01*
X1277407D01*
Y124134D01*
X1278480D01*
Y128426D01*
X1279553D01*
Y132718D01*
X1280626D01*
Y133791D01*
X1282772D01*
Y132718D01*
D02*
G37*
G36*
X1249507D02*
X1252726D01*
Y128426D01*
X1251653D01*
Y125207D01*
X1250580D01*
Y123061D01*
X1249507D01*
Y119841D01*
X1248434D01*
Y117695D01*
X1247361D01*
Y114476D01*
X1246288D01*
Y111257D01*
X1245215D01*
Y108038D01*
X1244142D01*
Y104819D01*
X1243069D01*
Y102673D01*
X1240923D01*
Y103746D01*
X1239849D01*
Y104819D01*
X1238776D01*
Y108038D01*
X1237703D01*
Y105892D01*
X1235557D01*
Y104819D01*
X1234484D01*
Y103746D01*
X1232338D01*
Y102673D01*
X1225900D01*
Y103746D01*
X1224827D01*
Y104819D01*
X1223754D01*
Y111257D01*
X1224827D01*
Y115549D01*
X1225900D01*
Y117695D01*
X1226973D01*
Y120914D01*
X1228046D01*
Y124134D01*
X1229119D01*
Y127353D01*
X1230192D01*
Y130572D01*
X1231265D01*
Y132718D01*
X1234484D01*
Y131645D01*
X1235557D01*
Y126280D01*
X1234484D01*
Y124134D01*
X1233411D01*
Y120914D01*
X1232338D01*
Y117695D01*
X1231265D01*
Y115549D01*
X1230192D01*
Y112330D01*
X1229119D01*
Y106965D01*
X1231265D01*
Y105892D01*
X1233411D01*
Y106965D01*
X1235557D01*
Y108038D01*
X1236630D01*
Y109111D01*
X1237703D01*
Y110184D01*
X1238776D01*
Y111257D01*
X1239849D01*
Y112330D01*
X1240923D01*
Y114476D01*
X1241996D01*
Y117695D01*
X1243069D01*
Y119841D01*
X1244142D01*
Y121988D01*
X1245215D01*
Y125207D01*
X1246288D01*
Y128426D01*
X1247361D01*
Y132718D01*
X1248434D01*
Y133791D01*
X1249507D01*
Y132718D01*
D02*
G37*
G36*
X1294576D02*
X1296722D01*
Y126280D01*
X1295649D01*
Y124134D01*
X1294576D01*
Y120914D01*
X1293503D01*
Y118768D01*
X1292429D01*
Y115549D01*
X1291356D01*
Y112330D01*
X1290283D01*
Y110184D01*
X1289210D01*
Y105892D01*
X1288137D01*
Y102673D01*
X1284918D01*
Y103746D01*
X1283845D01*
Y109111D01*
X1284918D01*
Y112330D01*
X1285991D01*
Y113403D01*
Y114476D01*
X1287064D01*
Y117695D01*
X1288137D01*
Y120914D01*
X1289210D01*
Y124134D01*
X1290283D01*
Y126280D01*
X1291356D01*
Y129499D01*
X1292429D01*
Y132718D01*
X1293503D01*
Y133791D01*
X1294576D01*
Y132718D01*
D02*
G37*
G36*
X1366470Y131645D02*
X1368617D01*
Y132718D01*
X1377201D01*
Y131645D01*
X1379347D01*
Y129499D01*
X1380420D01*
Y125207D01*
X1379347D01*
Y123061D01*
X1378274D01*
Y121988D01*
X1377201D01*
Y120914D01*
X1376128D01*
Y119841D01*
X1375055D01*
Y118768D01*
X1372909D01*
Y117695D01*
X1370763D01*
Y112330D01*
X1371836D01*
Y108038D01*
X1372909D01*
Y105892D01*
X1373982D01*
Y103746D01*
X1375055D01*
Y101600D01*
X1370763D01*
Y102673D01*
X1368617D01*
Y104819D01*
X1367543D01*
Y106965D01*
X1366470D01*
Y112330D01*
X1365397D01*
Y116622D01*
X1364324D01*
Y117695D01*
X1366470D01*
Y118768D01*
X1369690D01*
Y119841D01*
X1370763D01*
Y120914D01*
X1372909D01*
Y123061D01*
X1373982D01*
Y125207D01*
X1375055D01*
Y127353D01*
X1373982D01*
Y129499D01*
X1367543D01*
Y128426D01*
X1366470D01*
Y126280D01*
X1365397D01*
Y121988D01*
X1364324D01*
Y120914D01*
Y119841D01*
X1363251D01*
Y117695D01*
X1362178D01*
Y114476D01*
X1361105D01*
Y110184D01*
X1360032D01*
Y106965D01*
X1358959D01*
Y102673D01*
X1353594D01*
Y108038D01*
X1354667D01*
Y110184D01*
X1355740D01*
Y112330D01*
X1356813D01*
Y116622D01*
X1357886D01*
Y118768D01*
X1358959D01*
Y120914D01*
X1360032D01*
Y124134D01*
X1361105D01*
Y128426D01*
X1362178D01*
Y132718D01*
X1363251D01*
Y133791D01*
X1366470D01*
Y131645D01*
D02*
G37*
%LPC*%
G36*
X1398662Y314065D02*
X1397589D01*
Y312992D01*
X1398662D01*
Y314065D01*
D02*
G37*
G36*
X1311745Y299042D02*
X1308525D01*
Y292604D01*
X1309598D01*
Y288312D01*
X1310671D01*
Y286166D01*
X1311745D01*
Y285093D01*
X1312818D01*
Y284020D01*
X1313891D01*
Y285093D01*
X1320329D01*
Y284020D01*
X1321402D01*
Y282946D01*
X1323548D01*
Y284020D01*
X1322475D01*
Y287239D01*
X1321402D01*
Y290458D01*
X1320329D01*
Y291531D01*
X1319256D01*
Y293677D01*
X1318183D01*
Y294750D01*
X1317110D01*
Y295823D01*
X1316037D01*
Y296896D01*
X1313891D01*
Y297969D01*
X1311745D01*
Y299042D01*
D02*
G37*
G36*
X1346082Y263631D02*
X1335352D01*
Y262558D01*
X1336425D01*
Y260412D01*
X1337498D01*
Y259339D01*
X1338571D01*
Y258266D01*
X1339644D01*
Y257193D01*
X1340717D01*
Y256120D01*
X1342863D01*
Y255047D01*
X1345009D01*
Y253974D01*
X1348228D01*
Y252901D01*
X1354667D01*
Y251828D01*
X1357886D01*
Y253974D01*
X1356813D01*
Y256120D01*
X1355740D01*
Y257193D01*
X1354667D01*
Y258266D01*
X1353594D01*
Y259339D01*
X1352521D01*
Y260412D01*
X1350375D01*
Y261485D01*
X1348228D01*
Y262558D01*
X1346082D01*
Y263631D01*
D02*
G37*
G36*
X1392224Y238951D02*
X1384713D01*
Y237878D01*
X1383639D01*
Y234659D01*
X1384713D01*
Y232513D01*
X1386859D01*
Y231440D01*
X1389005D01*
Y233586D01*
X1391151D01*
Y234659D01*
X1394370D01*
Y233586D01*
X1396516D01*
Y235732D01*
X1395443D01*
Y236805D01*
X1394370D01*
Y237878D01*
X1392224D01*
Y238951D01*
D02*
G37*
G36*
X1316037Y270070D02*
X1307452D01*
Y268997D01*
X1301014D01*
Y267924D01*
X1295649D01*
Y266851D01*
X1293503D01*
Y265777D01*
X1290283D01*
Y264704D01*
X1288137D01*
Y263631D01*
X1285991D01*
Y262558D01*
X1283845D01*
Y261485D01*
X1282772D01*
Y260412D01*
X1281699D01*
Y259339D01*
X1279553D01*
Y258266D01*
X1278480D01*
Y257193D01*
X1277407D01*
Y256120D01*
X1276333D01*
Y255047D01*
X1275260D01*
Y252901D01*
X1274187D01*
Y251828D01*
X1273114D01*
Y250755D01*
X1272041D01*
Y248609D01*
X1270968D01*
Y247535D01*
X1269895D01*
Y245389D01*
X1268822D01*
Y242170D01*
X1267749D01*
Y238951D01*
X1266676D01*
Y235732D01*
X1265603D01*
Y229293D01*
X1264530D01*
Y216417D01*
X1265603D01*
Y208905D01*
X1266676D01*
Y205686D01*
X1267749D01*
Y202467D01*
X1268822D01*
Y199248D01*
X1269895D01*
Y197102D01*
X1270968D01*
Y194956D01*
X1272041D01*
Y192810D01*
X1273114D01*
Y190663D01*
X1274187D01*
Y189590D01*
X1275260D01*
Y187444D01*
X1276333D01*
Y186371D01*
X1277407D01*
Y185298D01*
X1278480D01*
Y183152D01*
X1279553D01*
Y182079D01*
X1280626D01*
Y181006D01*
X1281699D01*
Y179933D01*
X1282772D01*
Y178860D01*
X1283845D01*
Y177787D01*
X1284918D01*
Y176714D01*
X1287064D01*
Y175641D01*
X1288137D01*
Y174568D01*
X1289210D01*
Y173494D01*
X1291356D01*
Y172421D01*
X1292429D01*
Y171348D01*
X1294576D01*
Y170275D01*
X1296722D01*
Y169202D01*
X1298868D01*
Y168129D01*
X1301014D01*
Y167056D01*
X1304233D01*
Y165983D01*
X1307452D01*
Y164910D01*
X1310671D01*
Y163837D01*
X1317110D01*
Y162764D01*
X1323548D01*
Y163837D01*
X1322475D01*
Y164910D01*
X1320329D01*
Y165983D01*
X1317110D01*
Y167056D01*
X1314964D01*
Y168129D01*
X1312818D01*
Y169202D01*
X1310671D01*
Y170275D01*
X1309598D01*
Y171348D01*
X1307452D01*
Y172421D01*
X1305306D01*
Y173494D01*
X1304233D01*
Y174568D01*
X1302087D01*
Y175641D01*
X1301014D01*
Y176714D01*
X1299941D01*
Y177787D01*
X1297795D01*
Y178860D01*
X1296722D01*
Y179933D01*
X1295649D01*
Y181006D01*
X1294576D01*
Y182079D01*
X1293503D01*
Y183152D01*
X1292429D01*
Y184225D01*
X1291356D01*
Y185298D01*
X1290283D01*
Y186371D01*
X1289210D01*
Y187444D01*
X1288137D01*
Y188517D01*
X1287064D01*
Y190663D01*
X1285991D01*
Y191737D01*
X1284918D01*
Y193883D01*
X1283845D01*
Y194956D01*
X1282772D01*
Y197102D01*
X1281699D01*
Y199248D01*
X1280626D01*
Y201394D01*
X1279553D01*
Y203540D01*
X1278480D01*
Y206759D01*
X1277407D01*
Y209979D01*
X1276333D01*
Y215344D01*
X1275260D01*
Y228221D01*
X1276333D01*
Y233586D01*
X1277407D01*
Y236805D01*
X1278480D01*
Y240024D01*
X1279553D01*
Y242170D01*
X1280626D01*
Y244316D01*
X1281699D01*
Y245389D01*
X1282772D01*
Y247535D01*
X1283845D01*
Y248609D01*
X1284918D01*
Y250755D01*
X1285991D01*
Y251828D01*
X1287064D01*
Y252901D01*
X1288137D01*
Y253974D01*
X1289210D01*
Y255047D01*
X1290283D01*
Y256120D01*
X1291356D01*
Y257193D01*
X1292429D01*
Y258266D01*
X1293503D01*
Y259339D01*
X1295649D01*
Y260412D01*
X1296722D01*
Y261485D01*
X1298868D01*
Y262558D01*
X1301014D01*
Y263631D01*
X1303160D01*
Y264704D01*
X1305306D01*
Y265777D01*
X1308525D01*
Y266851D01*
X1311745D01*
Y267924D01*
X1316037D01*
Y270070D01*
D02*
G37*
G36*
X1340717Y132718D02*
X1338571D01*
Y131645D01*
X1337498D01*
Y130572D01*
X1339644D01*
Y131645D01*
X1340717D01*
Y132718D01*
D02*
G37*
G36*
X1337498Y130572D02*
X1336425D01*
Y129499D01*
X1337498D01*
Y130572D01*
D02*
G37*
G36*
X1336425Y129499D02*
X1335352D01*
Y128426D01*
X1336425D01*
Y129499D01*
D02*
G37*
G36*
X1343936Y130572D02*
X1342863D01*
Y129499D01*
X1339644D01*
Y128426D01*
X1338571D01*
Y127353D01*
X1337498D01*
Y126280D01*
X1336425D01*
Y125207D01*
X1335352D01*
Y124134D01*
X1334279D01*
Y123061D01*
X1333206D01*
Y120914D01*
X1332133D01*
Y119841D01*
Y118768D01*
X1331060D01*
Y116622D01*
X1329987D01*
Y106965D01*
X1331060D01*
Y105892D01*
X1332133D01*
Y104819D01*
X1336425D01*
Y105892D01*
X1338571D01*
Y106965D01*
X1339644D01*
Y108038D01*
X1340717D01*
Y109111D01*
X1341790D01*
Y110184D01*
X1342863D01*
Y112330D01*
X1343936D01*
Y114476D01*
X1345009D01*
Y116622D01*
X1346082D01*
Y119841D01*
X1347155D01*
Y128426D01*
X1346082D01*
Y129499D01*
X1343936D01*
Y130572D01*
D02*
G37*
%LPD*%
D10*
X133096Y560408D02*
G03*
X133096Y560408I-1270J0D01*
G01*
X322306Y451974D02*
G03*
X322306Y451974I-1250J0D01*
G01*
X530032Y522478D02*
G03*
X530032Y522478I-1250J0D01*
G01*
X494218Y116840D02*
G03*
X494218Y116840I-1250J0D01*
G01*
X799476Y354954D02*
G03*
X799476Y354954I-1250J0D01*
G01*
X1189924Y642620D02*
G03*
X1189924Y642620I-1250J0D01*
G01*
X92774Y138938D02*
G03*
X92774Y138938I-1250J0D01*
G01*
X248612Y797736D02*
G03*
X248612Y797736I-1250J0D01*
G01*
X1012986Y222046D02*
G03*
X1012986Y222046I-1250J0D01*
G01*
X1154506Y447940D02*
G03*
X1154506Y447940I-1250J0D01*
G01*
X1133882Y322580D02*
G03*
X1133882Y322580I-1250J0D01*
G01*
X929574Y648208D02*
G03*
X929574Y648208I-1250J0D01*
G01*
D11*
X541882Y544078D02*
G03*
X541882Y544078I-3000J0D01*
G01*
X506068Y138440D02*
G03*
X506068Y138440I-3000J0D01*
G01*
X1201774Y664220D02*
G03*
X1201774Y664220I-3000J0D01*
G01*
X1125532Y300980D02*
G03*
X1125532Y300980I-3000J0D01*
G01*
X941424Y669808D02*
G03*
X941424Y669808I-3000J0D01*
G01*
D12*
X528882Y554228D02*
G03*
X528882Y566928I0J6350D01*
G01*
X493068Y148590D02*
G03*
X493068Y161290I0J6350D01*
G01*
X187944Y774958D02*
G03*
X187944Y774958I-1000J0D01*
G01*
X408578Y775878D02*
G03*
X408578Y775878I-1000J0D01*
G01*
X406384Y390656D02*
G03*
X406384Y390656I-1000J0D01*
G01*
X1188774Y674370D02*
G03*
X1188774Y687070I0J6350D01*
G01*
X185150Y458720D02*
G03*
X185150Y458720I-1000J0D01*
G01*
X1132532Y290830D02*
G03*
X1132532Y278130I0J-6350D01*
G01*
X928424Y679958D02*
G03*
X928424Y692658I0J6350D01*
G01*
X502986Y710900D02*
X542986D01*
X502986Y733650D02*
Y736900D01*
Y710900D02*
Y714150D01*
Y736900D02*
X542986D01*
Y733650D02*
Y736900D01*
Y710900D02*
Y714150D01*
X1196152Y785576D02*
X1236152D01*
X1196152Y808326D02*
Y811576D01*
Y785576D02*
Y788826D01*
Y811576D02*
X1236152D01*
Y808326D02*
Y811576D01*
Y785576D02*
Y788826D01*
X519759Y285477D02*
Y295477D01*
X514759Y290477D02*
X524759D01*
X494759Y231977D02*
X544758D01*
Y281977D01*
X494759D02*
X544758D01*
X494759Y231977D02*
Y281977D01*
X581019Y238247D02*
Y278247D01*
X555019Y238247D02*
X558269D01*
X577769D02*
X581019D01*
X555019D02*
Y278247D01*
X558269D01*
X577769D02*
X581019D01*
X1062734Y572262D02*
X1072734D01*
X1067734Y567262D02*
Y577262D01*
X1009234Y547262D02*
Y597262D01*
Y547262D02*
X1059234D01*
Y597262D01*
X1009234D02*
X1059234D01*
X1008954Y628442D02*
X1048954D01*
Y602442D02*
Y605692D01*
Y625192D02*
Y628442D01*
X1008954Y602442D02*
X1048954D01*
X1008954D02*
Y605692D01*
Y625192D02*
Y628442D01*
X106426Y668528D02*
X163626D01*
X106426Y566928D02*
Y668528D01*
Y566928D02*
X163626D01*
Y668528D01*
X343406Y762996D02*
X353406D01*
X348406Y757996D02*
Y767996D01*
X289906Y737996D02*
Y787996D01*
Y737996D02*
X339906D01*
Y787996D01*
X289906D02*
X339906D01*
X293478Y707136D02*
X303478D01*
X298478Y702136D02*
Y712136D01*
X356978Y682136D02*
Y732136D01*
X306978D02*
X356978D01*
X306978Y682136D02*
Y732136D01*
Y682136D02*
X356978D01*
X242156Y403474D02*
X349156D01*
X242156Y398474D02*
X349156D01*
X242156Y445474D02*
X349156D01*
Y398474D02*
Y445474D01*
X242156Y398474D02*
Y445474D01*
X337110Y474472D02*
X347110D01*
X342110Y469472D02*
Y479472D01*
X283610Y449472D02*
Y499472D01*
Y449472D02*
X333610D01*
Y499472D01*
X283610D02*
X333610D01*
X315722Y503790D02*
Y513790D01*
X310722Y508790D02*
X320722D01*
X290722Y567290D02*
X340722D01*
X290722Y517290D02*
Y567290D01*
Y517290D02*
X340722D01*
Y567290D01*
X515718Y665160D02*
X518968D01*
X492968D02*
X496218D01*
X492968Y625160D02*
Y665160D01*
X515718Y625160D02*
X518968D01*
X492968D02*
X496218D01*
X518968D02*
Y665160D01*
X549377Y667070D02*
Y677070D01*
X544377Y672070D02*
X554377D01*
X524377Y613570D02*
X574378D01*
Y663570D01*
X524377D02*
X574378D01*
X524377Y613570D02*
Y663570D01*
X630882Y534078D02*
Y587078D01*
X528882Y566928D02*
Y587078D01*
Y534078D02*
Y554228D01*
Y587078D02*
X630882D01*
X528882Y534078D02*
X630882D01*
X504082Y443884D02*
Y493884D01*
X554082D01*
Y443884D02*
Y493884D01*
X504082Y443884D02*
X554082D01*
X524082Y502384D02*
X534082D01*
X529082Y497384D02*
Y507384D01*
X578820Y451932D02*
Y491932D01*
X601570D02*
X604820D01*
X578820D02*
X582070D01*
X604820Y451932D02*
Y491932D01*
X601570Y451932D02*
X604820D01*
X578820D02*
X582070D01*
X997504Y765876D02*
Y805876D01*
X971504Y765876D02*
X974754D01*
X994254D02*
X997504D01*
X971504D02*
Y805876D01*
X974754D01*
X994254D02*
X997504D01*
X916578Y758082D02*
Y808082D01*
X966578D01*
Y758082D02*
Y808082D01*
X916578Y758082D02*
X966578D01*
X936578Y816582D02*
X946578D01*
X941578Y811582D02*
Y821582D01*
X861868Y778322D02*
Y818322D01*
X835868Y778322D02*
X839118D01*
X858618D02*
X861868D01*
X835868D02*
Y818322D01*
X839118D01*
X858618D02*
X861868D01*
X1150166Y619010D02*
Y684010D01*
X1125166Y619010D02*
X1150166D01*
X1125166D02*
Y684010D01*
X1150166D01*
X1137666D02*
Y691260D01*
Y611760D02*
Y619010D01*
X1235248Y539054D02*
Y579054D01*
X1209248Y539054D02*
X1212498D01*
X1231998D02*
X1235248D01*
X1209248D02*
Y579054D01*
X1212498D01*
X1231998D02*
X1235248D01*
X1384100Y560082D02*
Y625082D01*
X1359100Y560082D02*
X1384100D01*
X1359100D02*
Y625082D01*
X1384100D01*
X1371600D02*
Y632332D01*
Y552832D02*
Y560082D01*
X1385616Y706948D02*
Y746948D01*
X1359616Y706948D02*
X1362866D01*
X1382366D02*
X1385616D01*
X1359616D02*
Y746948D01*
X1362866D01*
X1382366D02*
X1385616D01*
X220554Y219046D02*
Y263046D01*
X233258Y117156D02*
X275758D01*
X347812Y118146D02*
X390312D01*
X335590Y220570D02*
Y264570D01*
X445516Y225794D02*
Y233044D01*
Y153544D02*
Y160794D01*
X433016D02*
X458016D01*
Y225794D01*
X433016D02*
X458016D01*
X433016Y160794D02*
Y225794D01*
X656644Y209562D02*
Y274562D01*
X631644Y209562D02*
X656644D01*
X631644D02*
Y274562D01*
X656644D01*
X644144D02*
Y281812D01*
Y202312D02*
Y209562D01*
X624170Y177138D02*
X699170D01*
Y126138D02*
Y177138D01*
X624170Y126138D02*
X699170D01*
X624170D02*
Y177138D01*
X493068Y128440D02*
X595068D01*
X493068Y181440D02*
X595068D01*
X493068Y128440D02*
Y148590D01*
Y161290D02*
Y181440D01*
X595068Y128440D02*
Y181440D01*
X118166Y252320D02*
Y296320D01*
X879040Y647966D02*
Y712966D01*
X904040D01*
Y647966D02*
Y712966D01*
X879040Y647966D02*
X904040D01*
X891540Y640716D02*
Y647966D01*
Y712966D02*
Y720216D01*
X407578Y725378D02*
Y732628D01*
Y653128D02*
Y660378D01*
X395078D02*
X420078D01*
Y725378D01*
X395078D02*
X420078D01*
X395078Y660378D02*
Y725378D01*
X763626Y404204D02*
Y426954D01*
Y360954D02*
Y383704D01*
X808476Y426954D02*
X833526D01*
X763626D02*
X787976D01*
X763626Y360954D02*
X787976D01*
X808476D02*
X833526D01*
Y426954D01*
X838762Y530364D02*
Y595364D01*
X813762Y530364D02*
X838762D01*
X813762D02*
Y595364D01*
X838762D01*
X826262D02*
Y602614D01*
Y523114D02*
Y530364D01*
X865586Y566886D02*
X868836D01*
X888336D02*
X891586D01*
Y606886D01*
X865586D02*
X868836D01*
X888336D02*
X891586D01*
X865586Y566886D02*
Y606886D01*
X609016Y680658D02*
Y704658D01*
X808028Y750836D02*
Y815836D01*
X783028Y750836D02*
X808028D01*
X783028D02*
Y815836D01*
X808028D01*
X795528D02*
Y823086D01*
Y743586D02*
Y750836D01*
X1140160Y181168D02*
X1143410D01*
X1162910D02*
X1166160D01*
Y221168D01*
X1140160D02*
X1143410D01*
X1162910D02*
X1166160D01*
X1140160Y181168D02*
Y221168D01*
X801722Y176718D02*
X804972D01*
X778972D02*
X782222D01*
X778972Y136718D02*
Y176718D01*
X801722Y136718D02*
X804972D01*
X778972D02*
X782222D01*
X804972D02*
Y176718D01*
X1290774Y654220D02*
Y707220D01*
X1188774Y687070D02*
Y707220D01*
Y654220D02*
Y674370D01*
Y707220D02*
X1290774D01*
X1188774Y654220D02*
X1290774D01*
X531180Y825090D02*
Y828340D01*
Y802340D02*
Y805590D01*
Y802340D02*
X571180D01*
Y825090D02*
Y828340D01*
Y802340D02*
Y805590D01*
X531180Y828340D02*
X571180D01*
X910778Y337520D02*
Y340770D01*
Y360270D02*
Y363520D01*
X870778D02*
X910778D01*
X870778Y337520D02*
Y340770D01*
Y360270D02*
Y363520D01*
Y337520D02*
X910778D01*
X1015082Y393380D02*
X1018332D01*
X992332D02*
X995582D01*
X992332Y353380D02*
Y393380D01*
X1015082Y353380D02*
X1018332D01*
X992332D02*
X995582D01*
X1018332D02*
Y393380D01*
X1340456Y608264D02*
X1343706D01*
X1317706D02*
X1320956D01*
X1317706Y568264D02*
Y608264D01*
X1340456Y568264D02*
X1343706D01*
X1317706D02*
X1320956D01*
X1343706D02*
Y608264D01*
X97524Y169926D02*
X146824D01*
X97524Y106426D02*
Y169926D01*
Y106426D02*
X146824D01*
Y169926D01*
X841556Y127774D02*
Y192774D01*
X816556Y127774D02*
X841556D01*
X816556D02*
Y192774D01*
X841556D01*
X829056D02*
Y200024D01*
Y120524D02*
Y127774D01*
X849134Y299920D02*
X914134D01*
X849134D02*
Y324920D01*
X914134D01*
Y299920D02*
Y324920D01*
Y312420D02*
X921385D01*
X841884D02*
X849134D01*
X633234Y828094D02*
X698234D01*
Y803094D02*
Y828094D01*
X633234Y803094D02*
X698234D01*
X633234D02*
Y828094D01*
X625984Y815594D02*
X633234D01*
X698234D02*
X705484D01*
X240862Y837236D02*
X344862D01*
Y791236D02*
Y837236D01*
X240862Y791236D02*
X344862D01*
X240862D02*
Y837236D01*
Y832236D02*
X344862D01*
X395078Y510378D02*
Y575378D01*
X420078D01*
Y510378D02*
Y575378D01*
X395078Y510378D02*
X420078D01*
X407578Y503128D02*
Y510378D01*
Y575378D02*
Y582628D01*
X187144Y511822D02*
Y576822D01*
X212144D01*
Y511822D02*
Y576822D01*
X187144Y511822D02*
X212144D01*
X199644Y504572D02*
Y511822D01*
Y576822D02*
Y584072D01*
X183334Y658634D02*
Y723634D01*
X208334D01*
Y658634D02*
Y723634D01*
X183334Y658634D02*
X208334D01*
X195834Y651384D02*
Y658634D01*
Y723634D02*
Y730884D01*
X1042486Y138196D02*
Y216896D01*
X980986Y138196D02*
X1042486D01*
X980986D02*
Y216896D01*
X1042486D01*
X254538Y498256D02*
Y550256D01*
X226538Y498256D02*
X254538D01*
X226538D02*
Y550256D01*
X254538D01*
X240538D02*
Y556906D01*
Y491606D02*
Y498256D01*
X227238Y537256D02*
X253838D01*
X261904Y666912D02*
Y718912D01*
X233904Y666912D02*
X261904D01*
X233904D02*
Y718912D01*
X261904D01*
X247904D02*
Y725562D01*
Y660262D02*
Y666912D01*
X234604Y705912D02*
X261204D01*
X1106424Y165970D02*
Y175970D01*
X1101424Y170970D02*
X1111424D01*
X1081424Y229470D02*
X1131424D01*
X1081424Y179470D02*
Y229470D01*
Y179470D02*
X1131424D01*
Y229470D01*
X1187856Y375940D02*
Y398690D01*
Y419190D02*
Y441940D01*
X1117956Y375940D02*
X1143006D01*
X1163506D02*
X1187856D01*
X1163506Y441940D02*
X1187856D01*
X1117956D02*
X1143006D01*
X1117956Y375940D02*
Y441940D01*
X1079298Y366014D02*
X1089298D01*
X1084298Y361014D02*
Y371014D01*
X1025798Y341014D02*
Y391014D01*
Y341014D02*
X1075798D01*
Y391014D01*
X1025798D02*
X1075798D01*
X1030532Y310980D02*
X1132532D01*
X1030532Y257980D02*
X1132532D01*
Y290830D02*
Y310980D01*
Y257980D02*
Y278130D01*
X1030532Y257980D02*
Y310980D01*
X1242366Y756412D02*
X1252366D01*
X1247366Y751412D02*
Y761412D01*
X1188866Y731412D02*
Y781412D01*
Y731412D02*
X1238866D01*
Y781412D01*
X1188866D02*
X1238866D01*
X1286510Y565258D02*
Y575258D01*
X1281510Y570258D02*
X1291510D01*
X1261510Y628758D02*
X1311510D01*
X1261510Y578758D02*
Y628758D01*
Y578758D02*
X1311510D01*
Y628758D01*
X1322832Y735826D02*
Y743076D01*
Y663576D02*
Y670826D01*
X1310332D02*
X1335332D01*
Y735826D01*
X1310332D02*
X1335332D01*
X1310332Y670826D02*
Y735826D01*
X1171194Y580124D02*
Y587374D01*
Y507874D02*
Y515124D01*
X1158694D02*
X1183694D01*
Y580124D01*
X1158694D02*
X1183694D01*
X1158694Y515124D02*
Y580124D01*
X1137666Y739268D02*
Y746518D01*
Y811518D02*
Y818768D01*
X1125166Y811518D02*
X1150166D01*
X1125166Y746518D02*
Y811518D01*
Y746518D02*
X1150166D01*
Y811518D01*
X928424Y659808D02*
X1030424D01*
X928424Y712808D02*
X1030424D01*
X928424Y659808D02*
Y679958D01*
Y692658D02*
Y712808D01*
X1030424Y659808D02*
Y712808D01*
X793750Y614300D02*
Y621550D01*
Y686550D02*
Y693800D01*
X781250Y686550D02*
X806250D01*
X781250Y621550D02*
Y686550D01*
Y621550D02*
X806250D01*
Y686550D01*
X672338Y621526D02*
Y628776D01*
Y549276D02*
Y556526D01*
X659838D02*
X684838D01*
Y621526D01*
X659838D02*
X684838D01*
X659838Y556526D02*
Y621526D01*
D13*
X933450Y409448D02*
G03*
X933450Y409448I-12700J0D01*
G01*
X693928Y288290D02*
G03*
X693928Y288290I-12700J0D01*
G01*
X866394Y726186D02*
G03*
X866394Y726186I-12700J0D01*
G01*
X496062Y814578D02*
G03*
X496062Y814578I-12700J0D01*
G01*
X1314196Y815848D02*
G03*
X1314196Y815848I-12700J0D01*
G01*
X1192276Y279908D02*
G03*
X1192276Y279908I-12700J0D01*
G01*
X140716Y493268D02*
G03*
X140716Y493268I-12700J0D01*
G01*
X322072Y630428D02*
G03*
X322072Y630428I-12700J0D01*
G01*
X1302512Y503174D02*
G03*
X1302512Y503174I-12700J0D01*
G01*
X202604Y781958D02*
G03*
X171284Y781958I-15660J25061D01*
G01*
X423238Y782878D02*
G03*
X391918Y782878I-15660J25061D01*
G01*
X421044Y397656D02*
G03*
X389724Y397656I-15660J25061D01*
G01*
X168490Y451720D02*
G03*
X199810Y451720I15660J-25061D01*
G01*
X171284Y781958D02*
X202604D01*
X391918Y782878D02*
X423238D01*
X389724Y397656D02*
X421044D01*
X168490Y451720D02*
X199810D01*
D14*
X298304Y241046D02*
G03*
X298304Y241046I-42500J0D01*
G01*
X297008Y151156D02*
G03*
X297008Y151156I-42500J0D01*
G01*
X411562Y152146D02*
G03*
X411562Y152146I-42500J0D01*
G01*
X413340Y242570D02*
G03*
X413340Y242570I-42500J0D01*
G01*
X195916Y274320D02*
G03*
X195916Y274320I-42500J0D01*
G01*
X666516Y692658D02*
G03*
X666516Y692658I-30500J0D01*
G01*
D15*
X456910Y413184D02*
X716910D01*
X456910Y758184D02*
X716910D01*
Y413184D02*
Y758184D01*
X456910Y413184D02*
Y758184D01*
X76402Y377878D02*
X446402D01*
X76402Y872744D02*
X446402D01*
Y377878D02*
Y872744D01*
X76402Y377878D02*
Y872744D01*
X748792Y492878D02*
X1081402D01*
X748792Y872878D02*
X1081402D01*
Y492878D02*
Y872878D01*
X748792Y492878D02*
Y872878D01*
X51308Y51308D02*
X1452880D01*
X51308Y912368D02*
X1452880D01*
Y51308D02*
Y912368D01*
X51308Y51308D02*
Y912368D01*
X1211402Y77878D02*
X1426402D01*
X1211402Y457878D02*
X1426402D01*
Y77878D02*
Y457878D01*
X1211402Y77878D02*
Y457878D01*
X966402Y122878D02*
X1196402D01*
X966402Y457878D02*
X1196402D01*
Y122878D02*
Y457878D01*
X966402Y122878D02*
Y457878D01*
X748902Y77978D02*
X863902D01*
X748902Y257958D02*
X863902D01*
Y77978D02*
Y257958D01*
X748902Y77978D02*
Y257958D01*
X1091402Y472878D02*
X1426402D01*
X1091402Y872878D02*
X1426402D01*
Y472878D02*
Y872878D01*
X1091402Y472878D02*
Y872878D01*
X748902Y284188D02*
X953902D01*
X748902Y457962D02*
X953902D01*
Y284188D02*
Y457962D01*
X748902Y284188D02*
Y457962D01*
X738124Y787774D02*
Y872744D01*
X455422Y787774D02*
Y872744D01*
X738124D01*
X455422Y787774D02*
X738124D01*
X76708Y77878D02*
X716788D01*
X76708Y337878D02*
X716788D01*
Y77878D02*
Y337878D01*
X76708Y77878D02*
Y337878D01*
X114808Y628650D02*
Y631189D01*
X117347D01*
Y628650D01*
X114808D01*
X152146Y578358D02*
X158811D01*
X151892Y658144D02*
X158556D01*
X155224Y661477D02*
Y654812D01*
X78942Y880496D02*
Y895731D01*
X86559D01*
X89099Y893192D01*
Y888114D01*
X86559Y885575D01*
X78942D01*
X96716Y880496D02*
X101795D01*
X104334Y883036D01*
Y888114D01*
X101795Y890653D01*
X96716D01*
X94177Y888114D01*
Y883036D01*
X96716Y880496D01*
X109412Y890653D02*
Y883036D01*
X111951Y880496D01*
X114490Y883036D01*
X117030Y880496D01*
X119569Y883036D01*
Y890653D01*
X132265Y880496D02*
X127186D01*
X124647Y883036D01*
Y888114D01*
X127186Y890653D01*
X132265D01*
X134804Y888114D01*
Y885575D01*
X124647D01*
X139882Y890653D02*
Y880496D01*
Y885575D01*
X142422Y888114D01*
X144961Y890653D01*
X147500D01*
X180509Y893192D02*
X177970Y895731D01*
X172892D01*
X170352Y893192D01*
Y890653D01*
X172892Y888114D01*
X177970D01*
X180509Y885575D01*
Y883036D01*
X177970Y880496D01*
X172892D01*
X170352Y883036D01*
X185588Y890653D02*
Y883036D01*
X188127Y880496D01*
X195744D01*
Y890653D01*
X200823Y875418D02*
Y890653D01*
X208440D01*
X210979Y888114D01*
Y883036D01*
X208440Y880496D01*
X200823D01*
X216058Y875418D02*
Y890653D01*
X223675D01*
X226214Y888114D01*
Y883036D01*
X223675Y880496D01*
X216058D01*
X231293D02*
X236371D01*
X233832D01*
Y895731D01*
X231293D01*
X243989Y890653D02*
Y883036D01*
X246528Y880496D01*
X254145D01*
Y877957D01*
X251606Y875418D01*
X249067D01*
X254145Y880496D02*
Y890653D01*
X1224534Y392938D02*
Y408173D01*
X1232151D01*
X1234691Y405634D01*
Y400555D01*
X1232151Y398016D01*
X1224534D01*
X1239769Y392938D02*
Y395477D01*
X1242308D01*
Y392938D01*
X1239769D01*
X1262622Y405634D02*
X1260082Y408173D01*
X1255004D01*
X1252465Y405634D01*
Y403095D01*
X1255004Y400555D01*
X1260082D01*
X1262622Y398016D01*
Y395477D01*
X1260082Y392938D01*
X1255004D01*
X1252465Y395477D01*
X1267700Y392938D02*
Y395477D01*
X1270239D01*
Y392938D01*
X1267700D01*
X1234099Y330418D02*
X1223942D01*
X1234099Y340575D01*
Y343114D01*
X1231560Y345653D01*
X1226481D01*
X1223942Y343114D01*
X1239177D02*
X1241716Y345653D01*
X1246795D01*
X1249334Y343114D01*
Y332957D01*
X1246795Y330418D01*
X1241716D01*
X1239177Y332957D01*
Y343114D01*
X1264569Y330418D02*
X1254412D01*
X1264569Y340575D01*
Y343114D01*
X1262030Y345653D01*
X1256951D01*
X1254412Y343114D01*
X1277265Y330418D02*
Y345653D01*
X1269647Y338036D01*
X1279804D01*
X1223942Y375653D02*
Y362957D01*
X1226481Y360418D01*
X1231560D01*
X1234099Y362957D01*
Y375653D01*
X1241716Y360418D02*
X1246795D01*
X1249334Y362957D01*
Y368036D01*
X1246795Y370575D01*
X1241716D01*
X1239177Y368036D01*
Y362957D01*
X1241716Y360418D01*
X1264569Y375653D02*
X1254412D01*
Y360418D01*
X1264569D01*
X1254412Y368036D02*
X1259491D01*
X1234099Y433114D02*
X1231560Y435653D01*
X1226481D01*
X1223942Y433114D01*
Y430575D01*
X1226481Y428036D01*
X1231560D01*
X1234099Y425496D01*
Y422957D01*
X1231560Y420418D01*
X1226481D01*
X1223942Y422957D01*
X1239177Y420418D02*
X1244255D01*
X1241716D01*
Y435653D01*
X1239177Y433114D01*
X1251873D02*
X1254412Y435653D01*
X1259491D01*
X1262030Y433114D01*
Y430575D01*
X1259491Y428036D01*
X1262030Y425496D01*
Y422957D01*
X1259491Y420418D01*
X1254412D01*
X1251873Y422957D01*
Y425496D01*
X1254412Y428036D01*
X1251873Y430575D01*
Y433114D01*
X1254412Y428036D02*
X1259491D01*
X1277265Y435653D02*
X1267108D01*
Y428036D01*
X1272186Y430575D01*
X1274726D01*
X1277265Y428036D01*
Y422957D01*
X1274726Y420418D01*
X1269647D01*
X1267108Y422957D01*
X1282343D02*
X1284882Y420418D01*
X1289961D01*
X1292500Y422957D01*
Y433114D01*
X1289961Y435653D01*
X1284882D01*
X1282343Y433114D01*
Y430575D01*
X1284882Y428036D01*
X1292500D01*
X1297578Y435653D02*
X1307735D01*
Y433114D01*
X1297578Y422957D01*
Y420418D01*
X1322970Y435653D02*
X1317892Y433114D01*
X1312813Y428036D01*
Y422957D01*
X1315352Y420418D01*
X1320431D01*
X1322970Y422957D01*
Y425496D01*
X1320431Y428036D01*
X1312813D01*
X1328048Y433114D02*
X1330587Y435653D01*
X1335666D01*
X1338205Y433114D01*
Y430575D01*
X1335666Y428036D01*
X1333127D01*
X1335666D01*
X1338205Y425496D01*
Y422957D01*
X1335666Y420418D01*
X1330587D01*
X1328048Y422957D01*
X79502Y348232D02*
Y358389D01*
X84580Y363467D01*
X89659Y358389D01*
Y348232D01*
Y355850D01*
X79502D01*
X94737Y358389D02*
Y350771D01*
X97276Y348232D01*
X104894D01*
Y358389D01*
X120129Y363467D02*
Y348232D01*
X112511D01*
X109972Y350771D01*
Y355850D01*
X112511Y358389D01*
X120129D01*
X125207Y348232D02*
X130286D01*
X127746D01*
Y358389D01*
X125207D01*
X140442Y348232D02*
X145521D01*
X148060Y350771D01*
Y355850D01*
X145521Y358389D01*
X140442D01*
X137903Y355850D01*
Y350771D01*
X140442Y348232D01*
X168373D02*
Y358389D01*
X173452Y363467D01*
X178530Y358389D01*
Y348232D01*
Y355850D01*
X168373D01*
X183608Y348232D02*
Y358389D01*
X186147D01*
X188687Y355850D01*
Y348232D01*
Y355850D01*
X191226Y358389D01*
X193765Y355850D01*
Y348232D01*
X198843Y343154D02*
Y358389D01*
X206461D01*
X209000Y355850D01*
Y350771D01*
X206461Y348232D01*
X198843D01*
X214079D02*
X219157D01*
X216618D01*
Y363467D01*
X214079D01*
X226774Y348232D02*
X231853D01*
X229314D01*
Y358389D01*
X226774D01*
X242009Y348232D02*
Y360928D01*
Y355850D01*
X239470D01*
X244549D01*
X242009D01*
Y360928D01*
X244549Y363467D01*
X252166Y348232D02*
X257244D01*
X254705D01*
Y358389D01*
X252166D01*
X272479Y348232D02*
X267401D01*
X264862Y350771D01*
Y355850D01*
X267401Y358389D01*
X272479D01*
X275019Y355850D01*
Y353311D01*
X264862D01*
X280097Y358389D02*
Y348232D01*
Y353311D01*
X282636Y355850D01*
X285175Y358389D01*
X287715D01*
X750062Y278379D02*
Y263144D01*
X760219D01*
X765297D02*
Y278379D01*
X772915D01*
X775454Y275840D01*
Y270762D01*
X772915Y268222D01*
X765297D01*
X790689Y278379D02*
X780532D01*
Y270762D01*
X785611D01*
X780532D01*
Y263144D01*
X795767Y270762D02*
X805924D01*
X811002Y275840D02*
X813541Y278379D01*
X818620D01*
X821159Y275840D01*
Y273301D01*
X818620Y270762D01*
X816081D01*
X818620D01*
X821159Y268222D01*
Y265683D01*
X818620Y263144D01*
X813541D01*
X811002Y265683D01*
X751586Y479547D02*
Y464312D01*
X761743D01*
X766821D02*
Y479547D01*
X774439D01*
X776978Y477008D01*
Y471930D01*
X774439Y469390D01*
X766821D01*
X792213Y479547D02*
X782056D01*
Y471930D01*
X787134D01*
X782056D01*
Y464312D01*
X797291Y471930D02*
X807448D01*
X822683Y464312D02*
X812526D01*
X822683Y474469D01*
Y477008D01*
X820144Y479547D01*
X815066D01*
X812526Y477008D01*
X968942Y465496D02*
Y480731D01*
X976560D01*
X979099Y478192D01*
Y473114D01*
X976560Y470575D01*
X968942D01*
X984177Y475653D02*
Y465496D01*
Y470575D01*
X986716Y473114D01*
X989256Y475653D01*
X991795D01*
X1007030Y465496D02*
X1001951D01*
X999412Y468036D01*
Y473114D01*
X1001951Y475653D01*
X1007030D01*
X1009569Y473114D01*
Y470575D01*
X999412D01*
X1014647Y473114D02*
X1024804D01*
X1029882Y465496D02*
Y475653D01*
X1034961Y480731D01*
X1040039Y475653D01*
Y465496D01*
Y473114D01*
X1029882D01*
X1045117Y465496D02*
Y475653D01*
X1047657D01*
X1050196Y473114D01*
Y465496D01*
Y473114D01*
X1052735Y475653D01*
X1055274Y473114D01*
Y465496D01*
X1060352Y460418D02*
Y475653D01*
X1067970D01*
X1070509Y473114D01*
Y468036D01*
X1067970Y465496D01*
X1060352D01*
X759099Y893192D02*
X756560Y895731D01*
X751481D01*
X748942Y893192D01*
Y890653D01*
X751481Y888114D01*
X756560D01*
X759099Y885575D01*
Y883036D01*
X756560Y880496D01*
X751481D01*
X748942Y883036D01*
X766716Y890653D02*
X771795D01*
X774334Y888114D01*
Y880496D01*
X766716D01*
X764177Y883036D01*
X766716Y885575D01*
X774334D01*
X779412Y880496D02*
X784491D01*
X781951D01*
Y895731D01*
X779412D01*
X792108Y880496D02*
X797186D01*
X794647D01*
Y895731D01*
X792108D01*
X812421Y880496D02*
X807343D01*
X804804Y883036D01*
Y888114D01*
X807343Y890653D01*
X812421D01*
X814961Y888114D01*
Y885575D01*
X804804D01*
X820039Y880496D02*
Y890653D01*
X827656D01*
X830196Y888114D01*
Y880496D01*
X835274Y888114D02*
X845431D01*
X850509Y895731D02*
Y880496D01*
Y885575D01*
X860666Y895731D01*
X853048Y888114D01*
X860666Y880496D01*
X873362D02*
X868283D01*
X865744Y883036D01*
Y888114D01*
X868283Y890653D01*
X873362D01*
X875901Y888114D01*
Y885575D01*
X865744D01*
X880979Y890653D02*
Y883036D01*
X883519Y880496D01*
X891136D01*
Y877957D01*
X888597Y875418D01*
X886058D01*
X891136Y880496D02*
Y890653D01*
X911449Y880496D02*
X916528D01*
X913989D01*
Y895731D01*
X911449Y893192D01*
X1104099D02*
X1101560Y895731D01*
X1096481D01*
X1093942Y893192D01*
Y890653D01*
X1096481Y888114D01*
X1101560D01*
X1104099Y885575D01*
Y883036D01*
X1101560Y880496D01*
X1096481D01*
X1093942Y883036D01*
X1111716Y890653D02*
X1116795D01*
X1119334Y888114D01*
Y880496D01*
X1111716D01*
X1109177Y883036D01*
X1111716Y885575D01*
X1119334D01*
X1124412Y880496D02*
X1129491D01*
X1126951D01*
Y895731D01*
X1124412D01*
X1137108Y880496D02*
X1142186D01*
X1139647D01*
Y895731D01*
X1137108D01*
X1157421Y880496D02*
X1152343D01*
X1149804Y883036D01*
Y888114D01*
X1152343Y890653D01*
X1157421D01*
X1159961Y888114D01*
Y885575D01*
X1149804D01*
X1165039Y880496D02*
Y890653D01*
X1172657D01*
X1175196Y888114D01*
Y880496D01*
X1180274Y888114D02*
X1190431D01*
X1195509Y895731D02*
Y880496D01*
Y885575D01*
X1205666Y895731D01*
X1198048Y888114D01*
X1205666Y880496D01*
X1218362D02*
X1213283D01*
X1210744Y883036D01*
Y888114D01*
X1213283Y890653D01*
X1218362D01*
X1220901Y888114D01*
Y885575D01*
X1210744D01*
X1225979Y890653D02*
Y883036D01*
X1228519Y880496D01*
X1236136D01*
Y877957D01*
X1233597Y875418D01*
X1231058D01*
X1236136Y880496D02*
Y890653D01*
X1266606Y880496D02*
X1256450D01*
X1266606Y890653D01*
Y893192D01*
X1264067Y895731D01*
X1258989D01*
X1256450Y893192D01*
X458216Y895345D02*
Y880110D01*
X465834D01*
X468373Y882649D01*
Y892806D01*
X465834Y895345D01*
X458216D01*
X483608Y892806D02*
X481069Y895345D01*
X475990D01*
X473451Y892806D01*
Y882649D01*
X475990Y880110D01*
X481069D01*
X483608Y882649D01*
X503921Y895345D02*
Y880110D01*
X511539D01*
X514078Y882649D01*
Y885188D01*
X511539Y887728D01*
X503921D01*
X511539D01*
X514078Y890267D01*
Y892806D01*
X511539Y895345D01*
X503921D01*
X519156Y880110D02*
X524235D01*
X521696D01*
Y895345D01*
X519156D01*
X534391Y880110D02*
X539470D01*
X542009Y882649D01*
Y887728D01*
X539470Y890267D01*
X534391D01*
X531852Y887728D01*
Y882649D01*
X534391Y880110D01*
X557244Y890267D02*
X549626D01*
X547087Y887728D01*
Y882649D01*
X549626Y880110D01*
X557244D01*
X562322D02*
Y895345D01*
Y885188D02*
X569940Y890267D01*
X562322Y885188D02*
X569940Y880110D01*
X585175D02*
X580097D01*
X577557Y882649D01*
Y887728D01*
X580097Y890267D01*
X585175D01*
X587714Y887728D01*
Y885188D01*
X577557D01*
X592793Y890267D02*
Y880110D01*
Y885188D01*
X595332Y887728D01*
X597871Y890267D01*
X600410D01*
X459450Y775959D02*
X469607D01*
X464528D01*
Y760724D01*
X474685Y775959D02*
X479763D01*
X477224D01*
Y760724D01*
X474685D01*
X479763D01*
X487381D02*
Y770881D01*
X492459Y775959D01*
X497538Y770881D01*
Y760724D01*
Y768342D01*
X487381D01*
X474220Y723900D02*
X471680Y721361D01*
Y716283D01*
X474220Y713743D01*
X484376D01*
X486916Y716283D01*
Y721361D01*
X484376Y723900D01*
X486916Y728978D02*
Y734057D01*
Y731518D01*
X471680D01*
X474220Y728978D01*
X507264Y547882D02*
X519960D01*
X522500Y550421D01*
Y555500D01*
X519960Y558039D01*
X507264D01*
X522500Y570735D02*
X507264D01*
X514882Y563117D01*
Y573274D01*
X564212Y306505D02*
X561673Y309045D01*
X556595D01*
X554055Y306505D01*
Y296349D01*
X556595Y293810D01*
X561673D01*
X564212Y296349D01*
X569291Y306505D02*
X571830Y309045D01*
X576908D01*
X579447Y306505D01*
Y303966D01*
X576908Y301427D01*
X574369D01*
X576908D01*
X579447Y298888D01*
Y296349D01*
X576908Y293810D01*
X571830D01*
X569291Y296349D01*
X584526Y306505D02*
X587065Y309045D01*
X592143D01*
X594682Y306505D01*
Y296349D01*
X592143Y293810D01*
X587065D01*
X584526Y296349D01*
Y306505D01*
X780799Y208786D02*
X778260Y211325D01*
X773182D01*
X770643Y208786D01*
Y198630D01*
X773182Y196091D01*
X778260D01*
X780799Y198630D01*
X796034Y196091D02*
X785878D01*
X796034Y206247D01*
Y208786D01*
X793495Y211325D01*
X788417D01*
X785878Y208786D01*
X801113D02*
X803652Y211325D01*
X808730D01*
X811269Y208786D01*
Y206247D01*
X808730Y203708D01*
X811269Y201169D01*
Y198630D01*
X808730Y196091D01*
X803652D01*
X801113Y198630D01*
Y201169D01*
X803652Y203708D01*
X801113Y206247D01*
Y208786D01*
X803652Y203708D02*
X808730D01*
X848362Y575967D02*
X845823Y573428D01*
Y568350D01*
X848362Y565810D01*
X858518D01*
X861058Y568350D01*
Y573428D01*
X858518Y575967D01*
X861058Y591202D02*
Y581045D01*
X850901Y591202D01*
X848362D01*
X845823Y588663D01*
Y583585D01*
X848362Y581045D01*
X861058Y606437D02*
Y596281D01*
X850901Y606437D01*
X848362D01*
X845823Y603898D01*
Y598820D01*
X848362Y596281D01*
X978918Y602237D02*
X976378Y599698D01*
Y594620D01*
X978918Y592081D01*
X989074D01*
X991613Y594620D01*
Y599698D01*
X989074Y602237D01*
X991613Y617472D02*
Y607316D01*
X981457Y617472D01*
X978918D01*
X976378Y614933D01*
Y609855D01*
X978918Y607316D01*
Y622551D02*
X976378Y625090D01*
Y630168D01*
X978918Y632707D01*
X989074D01*
X991613Y630168D01*
Y625090D01*
X989074Y622551D01*
X978918D01*
X845823Y847596D02*
X843284Y850135D01*
X838205D01*
X835666Y847596D01*
Y837440D01*
X838205Y834901D01*
X843284D01*
X845823Y837440D01*
X850901Y834901D02*
X855980D01*
X853440D01*
Y850135D01*
X850901Y847596D01*
X863597D02*
X866136Y850135D01*
X871215D01*
X873754Y847596D01*
Y845057D01*
X871215Y842518D01*
X868676D01*
X871215D01*
X873754Y839979D01*
Y837440D01*
X871215Y834901D01*
X866136D01*
X863597Y837440D01*
X561850Y462283D02*
X559310Y459744D01*
Y454665D01*
X561850Y452126D01*
X572006D01*
X574546Y454665D01*
Y459744D01*
X572006Y462283D01*
X574546Y467361D02*
Y472440D01*
Y469900D01*
X559310D01*
X561850Y467361D01*
X574546Y490214D02*
Y480057D01*
X564389Y490214D01*
X561850D01*
X559310Y487675D01*
Y482596D01*
X561850Y480057D01*
X1210819Y829562D02*
X1208280Y832102D01*
X1203201D01*
X1200662Y829562D01*
Y819406D01*
X1203201Y816867D01*
X1208280D01*
X1210819Y819406D01*
X1215897Y829562D02*
X1218436Y832102D01*
X1223515D01*
X1226054Y829562D01*
Y827023D01*
X1223515Y824484D01*
X1226054Y821945D01*
Y819406D01*
X1223515Y816867D01*
X1218436D01*
X1215897Y819406D01*
Y821945D01*
X1218436Y824484D01*
X1215897Y827023D01*
Y829562D01*
X1218436Y824484D02*
X1223515D01*
X980949Y834388D02*
X978410Y836927D01*
X973331D01*
X970792Y834388D01*
Y824232D01*
X973331Y821693D01*
X978410D01*
X980949Y824232D01*
X996184Y836927D02*
X986027D01*
Y829310D01*
X991105Y831849D01*
X993645D01*
X996184Y829310D01*
Y824232D01*
X993645Y821693D01*
X988566D01*
X986027Y824232D01*
X1151637Y249680D02*
X1149098Y252220D01*
X1144019D01*
X1141480Y249680D01*
Y239524D01*
X1144019Y236985D01*
X1149098D01*
X1151637Y239524D01*
X1164333Y236985D02*
Y252220D01*
X1156715Y244602D01*
X1166872D01*
X503937Y693672D02*
X501398Y696211D01*
X496319D01*
X493780Y693672D01*
Y683516D01*
X496319Y680976D01*
X501398D01*
X503937Y683516D01*
X509015D02*
X511554Y680976D01*
X516633D01*
X519172Y683516D01*
Y693672D01*
X516633Y696211D01*
X511554D01*
X509015Y693672D01*
Y691133D01*
X511554Y688594D01*
X519172D01*
X605792Y145799D02*
X603252Y143259D01*
Y138181D01*
X605792Y135642D01*
X615948D01*
X618488Y138181D01*
Y143259D01*
X615948Y145799D01*
X618488Y150877D02*
X603252D01*
Y158494D01*
X605792Y161034D01*
X610870D01*
X613409Y158494D01*
Y150877D01*
X618488Y166112D02*
Y171190D01*
Y168651D01*
X603252D01*
X605792Y166112D01*
X668274Y326639D02*
X678431D01*
X673352D01*
Y311404D01*
X683509D02*
Y326639D01*
X691127D01*
X693666Y324100D01*
Y319021D01*
X691127Y316482D01*
X683509D01*
X708901Y326639D02*
X703822Y324100D01*
X698744Y319021D01*
Y313943D01*
X701283Y311404D01*
X706362D01*
X708901Y313943D01*
Y316482D01*
X706362Y319021D01*
X698744D01*
X838030Y759981D02*
X848187D01*
X843109D01*
Y744746D01*
X853265D02*
Y759981D01*
X860883D01*
X863422Y757442D01*
Y752364D01*
X860883Y749825D01*
X853265D01*
X876118Y744746D02*
Y759981D01*
X868500Y752364D01*
X878657D01*
X124664Y525128D02*
X122125Y527668D01*
X117046D01*
X114507Y525128D01*
Y514972D01*
X117046Y512433D01*
X122125D01*
X124664Y514972D01*
Y520050D01*
X119585D01*
X129742Y512433D02*
Y527668D01*
X139899Y512433D01*
Y527668D01*
X144977D02*
Y512433D01*
X152595D01*
X155134Y514972D01*
Y525128D01*
X152595Y527668D01*
X144977D01*
X160212Y525128D02*
X162751Y527668D01*
X167830D01*
X170369Y525128D01*
Y522589D01*
X167830Y520050D01*
X165291D01*
X167830D01*
X170369Y517511D01*
Y514972D01*
X167830Y512433D01*
X162751D01*
X160212Y514972D01*
X307854Y660652D02*
X305315Y663192D01*
X300236D01*
X297697Y660652D01*
Y650496D01*
X300236Y647956D01*
X305315D01*
X307854Y650496D01*
Y655574D01*
X302775D01*
X312932Y647956D02*
Y663192D01*
X323089Y647956D01*
Y663192D01*
X328167D02*
Y647956D01*
X335785D01*
X338324Y650496D01*
Y660652D01*
X335785Y663192D01*
X328167D01*
X353559Y647956D02*
X343402D01*
X353559Y658113D01*
Y660652D01*
X351020Y663192D01*
X345941D01*
X343402Y660652D01*
X1284883Y534856D02*
X1282344Y537396D01*
X1277265D01*
X1274726Y534856D01*
Y524700D01*
X1277265Y522160D01*
X1282344D01*
X1284883Y524700D01*
Y529778D01*
X1279805D01*
X1289961Y522160D02*
Y537396D01*
X1300118Y522160D01*
Y537396D01*
X1305196D02*
Y522160D01*
X1312814D01*
X1315353Y524700D01*
Y534856D01*
X1312814Y537396D01*
X1305196D01*
X1320431Y522160D02*
X1325510D01*
X1322971D01*
Y537396D01*
X1320431Y534856D01*
X470415Y848612D02*
X480571D01*
X475493D01*
Y833376D01*
X485650D02*
Y848612D01*
X493267D01*
X495806Y846072D01*
Y840994D01*
X493267Y838455D01*
X485650D01*
X500885Y846072D02*
X503424Y848612D01*
X508502D01*
X511041Y846072D01*
Y843533D01*
X508502Y840994D01*
X505963D01*
X508502D01*
X511041Y838455D01*
Y835916D01*
X508502Y833376D01*
X503424D01*
X500885Y835916D01*
X1286781Y849643D02*
X1296937D01*
X1291859D01*
Y834408D01*
X1302016D02*
Y849643D01*
X1309633D01*
X1312172Y847104D01*
Y842026D01*
X1309633Y839487D01*
X1302016D01*
X1327407Y834408D02*
X1317251D01*
X1327407Y844565D01*
Y847104D01*
X1324868Y849643D01*
X1319790D01*
X1317251Y847104D01*
X907549Y442211D02*
X917705D01*
X912627D01*
Y426977D01*
X922784D02*
Y442211D01*
X930401D01*
X932940Y439672D01*
Y434594D01*
X930401Y432055D01*
X922784D01*
X948175Y442211D02*
X938019D01*
Y434594D01*
X943097Y437133D01*
X945636D01*
X948175Y434594D01*
Y429516D01*
X945636Y426977D01*
X940558D01*
X938019Y429516D01*
X1161802Y312526D02*
X1171958D01*
X1166880D01*
Y297290D01*
X1177037D02*
Y312526D01*
X1184654D01*
X1187194Y309986D01*
Y304908D01*
X1184654Y302369D01*
X1177037D01*
X1192272Y297290D02*
X1197350D01*
X1194811D01*
Y312526D01*
X1192272Y309986D01*
X109986Y174755D02*
Y189989D01*
X117604D01*
X120143Y187450D01*
Y182372D01*
X117604Y179833D01*
X109986D01*
X135378Y174755D02*
X125221D01*
X135378Y184911D01*
Y187450D01*
X132839Y189989D01*
X127760D01*
X125221Y187450D01*
X991362Y239011D02*
X986284D01*
X988823D01*
Y226316D01*
X986284Y223776D01*
X983745D01*
X981205Y226316D01*
X996440Y223776D02*
X1001519D01*
X998980D01*
Y239011D01*
X996440Y236472D01*
X376432Y470406D02*
Y455171D01*
X384050D01*
X386589Y457710D01*
Y467866D01*
X384050Y470406D01*
X376432D01*
X401824D02*
X396745Y467866D01*
X391667Y462788D01*
Y457710D01*
X394206Y455171D01*
X399285D01*
X401824Y457710D01*
Y460249D01*
X399285Y462788D01*
X391667D01*
X394974Y858518D02*
Y843282D01*
X402592D01*
X405131Y845822D01*
Y855978D01*
X402592Y858518D01*
X394974D01*
X417827Y843282D02*
Y858518D01*
X410209Y850900D01*
X420366D01*
X172216Y477010D02*
Y461774D01*
X179834D01*
X182373Y464314D01*
Y474470D01*
X179834Y477010D01*
X172216D01*
X197608D02*
X187451D01*
Y469392D01*
X192530Y471931D01*
X195069D01*
X197608Y469392D01*
Y464314D01*
X195069Y461774D01*
X189990D01*
X187451Y464314D01*
X175264Y856486D02*
Y841251D01*
X182882D01*
X185421Y843790D01*
Y853946D01*
X182882Y856486D01*
X175264D01*
X190499Y853946D02*
X193038Y856486D01*
X198117D01*
X200656Y853946D01*
Y851407D01*
X198117Y848868D01*
X195578D01*
X198117D01*
X200656Y846329D01*
Y843790D01*
X198117Y841251D01*
X193038D01*
X190499Y843790D01*
X279404Y856740D02*
Y844044D01*
X281943Y841505D01*
X287022D01*
X289561Y844044D01*
Y856740D01*
X304796D02*
X294639D01*
Y849122D01*
X299718Y851661D01*
X302257D01*
X304796Y849122D01*
Y844044D01*
X302257Y841505D01*
X297178D01*
X294639Y844044D01*
X433102Y254711D02*
Y269946D01*
X440720D01*
X443259Y267406D01*
Y262328D01*
X440720Y259789D01*
X433102D01*
X438181D02*
X443259Y254711D01*
X448337D02*
X453416D01*
X450876D01*
Y269946D01*
X448337Y267406D01*
X468651Y254711D02*
Y269946D01*
X461033Y262328D01*
X471190D01*
X93474Y266449D02*
X90934Y263910D01*
Y258832D01*
X93474Y256293D01*
X103630D01*
X106170Y258832D01*
Y263910D01*
X103630Y266449D01*
X106170Y281684D02*
Y271528D01*
X96013Y281684D01*
X93474D01*
X90934Y279145D01*
Y274067D01*
X93474Y271528D01*
X90934Y286763D02*
Y296919D01*
X93474D01*
X103630Y286763D01*
X106170D01*
X360685Y302952D02*
X358146Y305492D01*
X353068D01*
X350529Y302952D01*
Y292796D01*
X353068Y290257D01*
X358146D01*
X360685Y292796D01*
X375920Y290257D02*
X365764D01*
X375920Y300413D01*
Y302952D01*
X373381Y305492D01*
X368303D01*
X365764Y302952D01*
X388616Y290257D02*
Y305492D01*
X380999Y297874D01*
X391156D01*
X906806Y673612D02*
X919502D01*
X922041Y676151D01*
Y681230D01*
X919502Y683769D01*
X906806D01*
X922041Y699004D02*
Y688847D01*
X911885Y699004D01*
X909346D01*
X906806Y696465D01*
Y691386D01*
X909346Y688847D01*
X543609Y845914D02*
X541070Y848454D01*
X535991D01*
X533452Y845914D01*
Y835758D01*
X535991Y833219D01*
X541070D01*
X543609Y835758D01*
X548687Y833219D02*
X553766D01*
X551227D01*
Y848454D01*
X548687Y845914D01*
X561383D02*
X563922Y848454D01*
X569001D01*
X571540Y845914D01*
Y835758D01*
X569001Y833219D01*
X563922D01*
X561383Y835758D01*
Y845914D01*
X816516Y220893D02*
Y236127D01*
X824134D01*
X826673Y233588D01*
Y228510D01*
X824134Y225971D01*
X816516D01*
X821595D02*
X826673Y220893D01*
X831751D02*
X836830D01*
X834290D01*
Y236127D01*
X831751Y233588D01*
X844447Y236127D02*
X854604D01*
Y233588D01*
X844447Y223432D01*
Y220893D01*
X194224Y141645D02*
X191685Y139106D01*
Y134028D01*
X194224Y131489D01*
X204380D01*
X206920Y134028D01*
Y139106D01*
X204380Y141645D01*
X194224Y146724D02*
X191685Y149263D01*
Y154341D01*
X194224Y156881D01*
X196763D01*
X199302Y154341D01*
Y151802D01*
Y154341D01*
X201841Y156881D01*
X204380D01*
X206920Y154341D01*
Y149263D01*
X204380Y146724D01*
X194224Y161959D02*
X191685Y164498D01*
Y169576D01*
X194224Y172115D01*
X196763D01*
X199302Y169576D01*
Y167037D01*
Y169576D01*
X201841Y172115D01*
X204380D01*
X206920Y169576D01*
Y164498D01*
X204380Y161959D01*
X308866Y141989D02*
X306326Y139450D01*
Y134372D01*
X308866Y131833D01*
X319022D01*
X321562Y134372D01*
Y139450D01*
X319022Y141989D01*
X308866Y147068D02*
X306326Y149607D01*
Y154685D01*
X308866Y157224D01*
X311405D01*
X313944Y154685D01*
Y152146D01*
Y154685D01*
X316483Y157224D01*
X319022D01*
X321562Y154685D01*
Y149607D01*
X319022Y147068D01*
X321562Y172459D02*
Y162303D01*
X311405Y172459D01*
X308866D01*
X306326Y169920D01*
Y164842D01*
X308866Y162303D01*
X247924Y302820D02*
X245385Y305359D01*
X240307D01*
X237768Y302820D01*
Y292663D01*
X240307Y290124D01*
X245385D01*
X247924Y292663D01*
X253003Y302820D02*
X255542Y305359D01*
X260620D01*
X263159Y302820D01*
Y300281D01*
X260620Y297742D01*
X258081D01*
X260620D01*
X263159Y295203D01*
Y292663D01*
X260620Y290124D01*
X255542D01*
X253003Y292663D01*
X268238Y290124D02*
X273316D01*
X270777D01*
Y305359D01*
X268238Y302820D01*
X880113Y381506D02*
X877574Y384045D01*
X872496D01*
X869957Y381506D01*
Y371350D01*
X872496Y368811D01*
X877574D01*
X880113Y371350D01*
X895348Y368811D02*
X885192D01*
X895348Y378967D01*
Y381506D01*
X892809Y384045D01*
X887731D01*
X885192Y381506D01*
X900427D02*
X902966Y384045D01*
X908044D01*
X910583Y381506D01*
Y378967D01*
X908044Y376428D01*
X905505D01*
X908044D01*
X910583Y373889D01*
Y371350D01*
X908044Y368811D01*
X902966D01*
X900427Y371350D01*
X1191770Y547119D02*
X1189230Y544580D01*
Y539501D01*
X1191770Y536962D01*
X1201926D01*
X1204465Y539501D01*
Y544580D01*
X1201926Y547119D01*
X1204465Y552197D02*
Y557276D01*
Y554736D01*
X1189230D01*
X1191770Y552197D01*
Y564893D02*
X1189230Y567432D01*
Y572511D01*
X1191770Y575050D01*
X1194309D01*
X1196848Y572511D01*
X1199387Y575050D01*
X1201926D01*
X1204465Y572511D01*
Y567432D01*
X1201926Y564893D01*
X1199387D01*
X1196848Y567432D01*
X1194309Y564893D01*
X1191770D01*
X1196848Y567432D02*
Y572511D01*
X996953Y421638D02*
X994414Y424178D01*
X989335D01*
X986796Y421638D01*
Y411482D01*
X989335Y408942D01*
X994414D01*
X996953Y411482D01*
X1002031Y408942D02*
X1007110D01*
X1004570D01*
Y424178D01*
X1002031Y421638D01*
X1024884Y424178D02*
X1014727D01*
Y416560D01*
X1019806Y419099D01*
X1022345D01*
X1024884Y416560D01*
Y411482D01*
X1022345Y408942D01*
X1017266D01*
X1014727Y411482D01*
X1365253Y775460D02*
X1362714Y777999D01*
X1357635D01*
X1355096Y775460D01*
Y765304D01*
X1357635Y762765D01*
X1362714D01*
X1365253Y765304D01*
X1370331Y762765D02*
X1375410D01*
X1372870D01*
Y777999D01*
X1370331Y775460D01*
X1390645Y762765D02*
Y777999D01*
X1383027Y770382D01*
X1393184D01*
X1327660Y637284D02*
X1325121Y639823D01*
X1320043D01*
X1317503Y637284D01*
Y627128D01*
X1320043Y624589D01*
X1325121D01*
X1327660Y627128D01*
X1332738Y624589D02*
X1337817D01*
X1335278D01*
Y639823D01*
X1332738Y637284D01*
X1345434Y624589D02*
X1350513D01*
X1347973D01*
Y639823D01*
X1345434Y637284D01*
X471451Y142244D02*
X484146D01*
X486685Y144783D01*
Y149862D01*
X484146Y152401D01*
X471451D01*
Y167636D02*
X473990Y162558D01*
X479068Y157479D01*
X484146D01*
X486685Y160018D01*
Y165097D01*
X484146Y167636D01*
X481607D01*
X479068Y165097D01*
Y157479D01*
X223015Y410214D02*
X235710D01*
X238249Y412753D01*
Y417832D01*
X235710Y420371D01*
X223015D01*
Y425449D02*
Y435606D01*
X225554D01*
X235710Y425449D01*
X238249D01*
X1008129Y273561D02*
X1020824D01*
X1023363Y276101D01*
Y281179D01*
X1020824Y283718D01*
X1008129D01*
X1023363Y288796D02*
Y293875D01*
Y291336D01*
X1008129D01*
X1010668Y288796D01*
X1168726Y666506D02*
X1181422D01*
X1183961Y669045D01*
Y674124D01*
X1181422Y676663D01*
X1168726D01*
X1171266Y681741D02*
X1168726Y684280D01*
Y689359D01*
X1171266Y691898D01*
X1173805D01*
X1176344Y689359D01*
Y686820D01*
Y689359D01*
X1178883Y691898D01*
X1181422D01*
X1183961Y689359D01*
Y684280D01*
X1181422Y681741D01*
X809495Y551692D02*
X794260D01*
Y559310D01*
X796800Y561849D01*
X801878D01*
X804417Y559310D01*
Y551692D01*
Y556771D02*
X809495Y561849D01*
X794260Y566927D02*
Y577084D01*
X796800D01*
X806956Y566927D01*
X809495D01*
X778146Y764292D02*
X762910D01*
Y771910D01*
X765450Y774449D01*
X770528D01*
X773067Y771910D01*
Y764292D01*
Y769370D02*
X778146Y774449D01*
Y779527D02*
Y784606D01*
Y782066D01*
X762910D01*
X765450Y779527D01*
Y792223D02*
X762910Y794762D01*
Y799841D01*
X765450Y802380D01*
X775606D01*
X778146Y799841D01*
Y794762D01*
X775606Y792223D01*
X765450D01*
X776367Y637545D02*
X761133D01*
Y645163D01*
X763672Y647702D01*
X768750D01*
X771289Y645163D01*
Y637545D01*
Y642624D02*
X776367Y647702D01*
Y652780D02*
Y657859D01*
Y655320D01*
X761133D01*
X763672Y652780D01*
X776367Y665476D02*
Y670555D01*
Y668016D01*
X761133D01*
X763672Y665476D01*
X648736Y833219D02*
Y848454D01*
X656354D01*
X658893Y845914D01*
Y840836D01*
X656354Y838297D01*
X648736D01*
X653815D02*
X658893Y833219D01*
X663971D02*
X669050D01*
X666510D01*
Y848454D01*
X663971Y845914D01*
X686824Y833219D02*
X676667D01*
X686824Y843375D01*
Y845914D01*
X684285Y848454D01*
X679206D01*
X676667Y845914D01*
X818640Y295662D02*
X803404D01*
Y303280D01*
X805944Y305819D01*
X811022D01*
X813561Y303280D01*
Y295662D01*
Y300741D02*
X818640Y305819D01*
Y310897D02*
Y315976D01*
Y313436D01*
X803404D01*
X805944Y310897D01*
Y323593D02*
X803404Y326132D01*
Y331211D01*
X805944Y333750D01*
X808483D01*
X811022Y331211D01*
Y328671D01*
Y331211D01*
X813561Y333750D01*
X816100D01*
X818640Y331211D01*
Y326132D01*
X816100Y323593D01*
X186697Y606046D02*
Y621282D01*
X194314D01*
X196853Y618742D01*
Y613664D01*
X194314Y611125D01*
X186697D01*
X191775D02*
X196853Y606046D01*
X212088D02*
X201932D01*
X212088Y616203D01*
Y618742D01*
X209549Y621282D01*
X204471D01*
X201932Y618742D01*
X217167D02*
X219706Y621282D01*
X224784D01*
X227323Y618742D01*
Y608586D01*
X224784Y606046D01*
X219706D01*
X217167Y608586D01*
Y618742D01*
X394468Y603252D02*
Y618488D01*
X402085D01*
X404624Y615948D01*
Y610870D01*
X402085Y608331D01*
X394468D01*
X399546D02*
X404624Y603252D01*
X419860D02*
X409703D01*
X419860Y613409D01*
Y615948D01*
X417320Y618488D01*
X412242D01*
X409703Y615948D01*
X424938Y603252D02*
X430016D01*
X427477D01*
Y618488D01*
X424938Y615948D01*
X182886Y751842D02*
Y767077D01*
X190504D01*
X193043Y764538D01*
Y759460D01*
X190504Y756921D01*
X182886D01*
X187964D02*
X193043Y751842D01*
X198121D02*
X203200D01*
X200660D01*
Y767077D01*
X198121Y764538D01*
X220974Y767077D02*
X210817D01*
Y759460D01*
X215896Y761999D01*
X218435D01*
X220974Y759460D01*
Y754382D01*
X218435Y751842D01*
X213356D01*
X210817Y754382D01*
X394722Y753621D02*
Y768856D01*
X402340D01*
X404879Y766316D01*
Y761238D01*
X402340Y758699D01*
X394722D01*
X399800D02*
X404879Y753621D01*
X409957D02*
X415036D01*
X412496D01*
Y768856D01*
X409957Y766316D01*
X432810Y768856D02*
X427732Y766316D01*
X422653Y761238D01*
Y756160D01*
X425192Y753621D01*
X430271D01*
X432810Y756160D01*
Y758699D01*
X430271Y761238D01*
X422653D01*
X660400Y654812D02*
Y670047D01*
X668018D01*
X670557Y667508D01*
Y662430D01*
X668018Y659890D01*
X660400D01*
X665478D02*
X670557Y654812D01*
X683253D02*
Y670047D01*
X675635Y662430D01*
X685792D01*
X1113788Y397767D02*
X1098552D01*
Y405385D01*
X1101092Y407924D01*
X1106170D01*
X1108709Y405385D01*
Y397767D01*
Y402846D02*
X1113788Y407924D01*
Y413002D02*
Y418081D01*
Y415542D01*
X1098552D01*
X1101092Y413002D01*
X874158Y667770D02*
X858923D01*
Y675388D01*
X861462Y677927D01*
X866540D01*
X869079Y675388D01*
Y667770D01*
Y672849D02*
X874158Y677927D01*
Y693162D02*
Y683005D01*
X864001Y693162D01*
X861462D01*
X858923Y690623D01*
Y685544D01*
X861462Y683005D01*
X1309882Y764288D02*
Y779523D01*
X1317500D01*
X1320039Y776984D01*
Y771906D01*
X1317500Y769367D01*
X1309882D01*
X1314960D02*
X1320039Y764288D01*
X1325117Y776984D02*
X1327656Y779523D01*
X1332735D01*
X1335274Y776984D01*
Y774445D01*
X1332735Y771906D01*
X1330195D01*
X1332735D01*
X1335274Y769367D01*
Y766828D01*
X1332735Y764288D01*
X1327656D01*
X1325117Y766828D01*
X778674Y432056D02*
Y447291D01*
X786292D01*
X788831Y444752D01*
Y439674D01*
X786292Y437135D01*
X778674D01*
X783753D02*
X788831Y432056D01*
X793909D02*
X798988D01*
X796448D01*
Y447291D01*
X793909Y444752D01*
X806605D02*
X809144Y447291D01*
X814223D01*
X816762Y444752D01*
Y442213D01*
X814223Y439674D01*
X816762Y437135D01*
Y434596D01*
X814223Y432056D01*
X809144D01*
X806605Y434596D01*
Y437135D01*
X809144Y439674D01*
X806605Y442213D01*
Y444752D01*
X809144Y439674D02*
X814223D01*
X626615Y220986D02*
X611381D01*
Y228604D01*
X613920Y231143D01*
X618998D01*
X621537Y228604D01*
Y220986D01*
Y226064D02*
X626615Y231143D01*
Y236221D02*
Y241300D01*
Y238760D01*
X611381D01*
X613920Y236221D01*
X624076Y248917D02*
X626615Y251456D01*
Y256535D01*
X624076Y259074D01*
X613920D01*
X611381Y256535D01*
Y251456D01*
X613920Y248917D01*
X616459D01*
X618998Y251456D01*
Y259074D01*
X1120137Y769116D02*
X1104902D01*
Y776734D01*
X1107442Y779273D01*
X1112520D01*
X1115059Y776734D01*
Y769116D01*
Y774194D02*
X1120137Y779273D01*
X1107442Y784351D02*
X1104902Y786890D01*
Y791969D01*
X1107442Y794508D01*
X1109981D01*
X1112520Y791969D01*
X1115059Y794508D01*
X1117598D01*
X1120137Y791969D01*
Y786890D01*
X1117598Y784351D01*
X1115059D01*
X1112520Y786890D01*
X1109981Y784351D01*
X1107442D01*
X1112520Y786890D02*
Y791969D01*
X1119630Y645164D02*
X1104395D01*
Y652782D01*
X1106934Y655321D01*
X1112012D01*
X1114551Y652782D01*
Y645164D01*
Y650242D02*
X1119630Y655321D01*
X1117090Y660399D02*
X1119630Y662938D01*
Y668017D01*
X1117090Y670556D01*
X1106934D01*
X1104395Y668017D01*
Y662938D01*
X1106934Y660399D01*
X1109473D01*
X1112012Y662938D01*
Y670556D01*
X1153811Y539928D02*
X1138577D01*
Y547546D01*
X1141116Y550085D01*
X1146194D01*
X1148733Y547546D01*
Y539928D01*
Y545006D02*
X1153811Y550085D01*
X1138577Y565320D02*
Y555163D01*
X1146194D01*
X1143655Y560242D01*
Y562781D01*
X1146194Y565320D01*
X1151272D01*
X1153811Y562781D01*
Y557702D01*
X1151272Y555163D01*
X1358396Y654306D02*
Y669541D01*
X1366014D01*
X1368553Y667002D01*
Y661924D01*
X1366014Y659385D01*
X1358396D01*
X1363474D02*
X1368553Y654306D01*
X1383788Y669541D02*
X1378710Y667002D01*
X1373631Y661924D01*
Y656846D01*
X1376170Y654306D01*
X1381249D01*
X1383788Y656846D01*
Y659385D01*
X1381249Y661924D01*
X1373631D01*
X106937Y672849D02*
Y688083D01*
X114555D01*
X117094Y685544D01*
Y680466D01*
X114555Y677927D01*
X106937D01*
X122172Y672849D02*
X127251D01*
X124712D01*
Y688083D01*
X122172Y685544D01*
X607060Y747009D02*
Y731774D01*
X614678D01*
X617217Y734313D01*
Y744470D01*
X614678Y747009D01*
X607060D01*
X622295Y731774D02*
X627373D01*
X624834D01*
Y747009D01*
X622295Y744470D01*
X214125Y679708D02*
X229359D01*
Y687326D01*
X226820Y689865D01*
X216664D01*
X214125Y687326D01*
Y679708D01*
X229359Y705100D02*
Y694943D01*
X219203Y705100D01*
X216664D01*
X214125Y702561D01*
Y697482D01*
X216664Y694943D01*
X229874Y596390D02*
Y581155D01*
X237492D01*
X240031Y583694D01*
Y593850D01*
X237492Y596390D01*
X229874D01*
X245109D02*
X255266D01*
Y593850D01*
X245109Y583694D01*
Y581155D01*
X276154Y696979D02*
X273615Y694440D01*
Y689362D01*
X276154Y686823D01*
X286311D01*
X288850Y689362D01*
Y694440D01*
X286311Y696979D01*
X288850Y712214D02*
Y702058D01*
X278693Y712214D01*
X276154D01*
X273615Y709675D01*
Y704597D01*
X276154Y702058D01*
X273615Y727449D02*
Y717293D01*
X281232D01*
X278693Y722371D01*
Y724910D01*
X281232Y727449D01*
X286311D01*
X288850Y724910D01*
Y719832D01*
X286311Y717293D01*
X486920Y460251D02*
X484380Y457712D01*
Y452633D01*
X486920Y450094D01*
X497076D01*
X499616Y452633D01*
Y457712D01*
X497076Y460251D01*
X499616Y465329D02*
Y470408D01*
Y467868D01*
X484380D01*
X486920Y465329D01*
X484380Y478025D02*
Y488182D01*
X486920D01*
X497076Y478025D01*
X499616D01*
X266032Y464315D02*
X263493Y461776D01*
Y456698D01*
X266032Y454159D01*
X276188D01*
X278727Y456698D01*
Y461776D01*
X276188Y464315D01*
X266032Y469394D02*
X263493Y471933D01*
Y477011D01*
X266032Y479550D01*
X268571D01*
X271110Y477011D01*
Y474472D01*
Y477011D01*
X273649Y479550D01*
X276188D01*
X278727Y477011D01*
Y471933D01*
X276188Y469394D01*
X263493Y494785D02*
Y484629D01*
X271110D01*
X268571Y489707D01*
Y492246D01*
X271110Y494785D01*
X276188D01*
X278727Y492246D01*
Y487168D01*
X276188Y484629D01*
X939039Y835658D02*
X936500Y838197D01*
X931421D01*
X928882Y835658D01*
Y825502D01*
X931421Y822962D01*
X936500D01*
X939039Y825502D01*
X954274Y838197D02*
X949195Y835658D01*
X944117Y830580D01*
Y825502D01*
X946656Y822962D01*
X951735D01*
X954274Y825502D01*
Y828041D01*
X951735Y830580D01*
X944117D01*
X1043435Y408430D02*
X1040896Y410970D01*
X1035817D01*
X1033278Y408430D01*
Y398274D01*
X1035817Y395734D01*
X1040896D01*
X1043435Y398274D01*
X1048513Y395734D02*
X1053592D01*
X1051052D01*
Y410970D01*
X1048513Y408430D01*
X1071366Y410970D02*
X1066288Y408430D01*
X1061209Y403352D01*
Y398274D01*
X1063748Y395734D01*
X1068827D01*
X1071366Y398274D01*
Y400813D01*
X1068827Y403352D01*
X1061209D01*
X509856Y312347D02*
X507317Y314887D01*
X502239D01*
X499699Y312347D01*
Y302191D01*
X502239Y299652D01*
X507317D01*
X509856Y302191D01*
X525091Y299652D02*
X514935D01*
X525091Y309808D01*
Y312347D01*
X522552Y314887D01*
X517474D01*
X514935Y312347D01*
X530170Y302191D02*
X532709Y299652D01*
X537787D01*
X540326Y302191D01*
Y312347D01*
X537787Y314887D01*
X532709D01*
X530170Y312347D01*
Y309808D01*
X532709Y307269D01*
X540326D01*
X1244348Y595379D02*
X1241808Y592840D01*
Y587761D01*
X1244348Y585222D01*
X1254504D01*
X1257044Y587761D01*
Y592840D01*
X1254504Y595379D01*
X1257044Y600457D02*
Y605536D01*
Y602996D01*
X1241808D01*
X1244348Y600457D01*
X1254504Y613153D02*
X1257044Y615692D01*
Y620771D01*
X1254504Y623310D01*
X1244348D01*
X1241808Y620771D01*
Y615692D01*
X1244348Y613153D01*
X1246887D01*
X1249426Y615692D01*
Y623310D01*
X546838Y693179D02*
X544299Y695718D01*
X539221D01*
X536682Y693179D01*
Y683022D01*
X539221Y680483D01*
X544299D01*
X546838Y683022D01*
X562073Y680483D02*
X551917D01*
X562073Y690639D01*
Y693179D01*
X559534Y695718D01*
X554456D01*
X551917Y693179D01*
X272036Y752839D02*
X269496Y750300D01*
Y745222D01*
X272036Y742683D01*
X282192D01*
X284732Y745222D01*
Y750300D01*
X282192Y752839D01*
X284732Y768074D02*
Y757918D01*
X274575Y768074D01*
X272036D01*
X269496Y765535D01*
Y760457D01*
X272036Y757918D01*
X269496Y783309D02*
X272036Y778231D01*
X277114Y773153D01*
X282192D01*
X284732Y775692D01*
Y780770D01*
X282192Y783309D01*
X279653D01*
X277114Y780770D01*
Y773153D01*
X991110Y564137D02*
X988570Y561597D01*
Y556519D01*
X991110Y553980D01*
X1001266D01*
X1003805Y556519D01*
Y561597D01*
X1001266Y564137D01*
X1003805Y579372D02*
Y569215D01*
X993649Y579372D01*
X991110D01*
X988570Y576832D01*
Y571754D01*
X991110Y569215D01*
X1003805Y584450D02*
Y589528D01*
Y586989D01*
X988570D01*
X991110Y584450D01*
X1062230Y200153D02*
X1059690Y197614D01*
Y192535D01*
X1062230Y189996D01*
X1072386D01*
X1074926Y192535D01*
Y197614D01*
X1072386Y200153D01*
X1062230Y205231D02*
X1059690Y207770D01*
Y212849D01*
X1062230Y215388D01*
X1064769D01*
X1067308Y212849D01*
Y210310D01*
Y212849D01*
X1069847Y215388D01*
X1072386D01*
X1074926Y212849D01*
Y207770D01*
X1072386Y205231D01*
X1171196Y755397D02*
X1168656Y752858D01*
Y747779D01*
X1171196Y745240D01*
X1181352D01*
X1183892Y747779D01*
Y752858D01*
X1181352Y755397D01*
X1168656Y760475D02*
Y770632D01*
X1171196D01*
X1181352Y760475D01*
X1183892D01*
X305565Y584732D02*
X303026Y587271D01*
X297948D01*
X295409Y584732D01*
Y574576D01*
X297948Y572037D01*
X303026D01*
X305565Y574576D01*
X310644Y584732D02*
X313183Y587271D01*
X318261D01*
X320800Y584732D01*
Y582193D01*
X318261Y579654D01*
X315722D01*
X318261D01*
X320800Y577115D01*
Y574576D01*
X318261Y572037D01*
X313183D01*
X310644Y574576D01*
X333496Y572037D02*
Y587271D01*
X325879Y579654D01*
X336035D01*
M02*
